<svg width="411" height="396" viewBox="0 0 411 396" fill="none" xmlns="http://www.w3.org/2000/svg">
<g clip-path="url(#clip0_67_112799)">
<path d="M152.472 42.7728C148.89 64.4682 155.182 86.3907 158.343 108.152C161.504 129.913 160.704 154.428 145.924 170.734C128.354 190.116 98.7388 190.484 73.4293 197.203C43.5001 205.148 15.6478 225.351 4.54919 254.204C-6.54938 283.057 2.95852 320.134 29.8053 335.55C53.2433 349.011 83.1882 343.953 107.85 332.889C132.511 321.824 154.523 305.297 179.684 295.397C204.844 285.497 235.726 283.42 257.013 300.065C280.788 318.653 287.245 356.057 315 367.942C329.948 374.342 347.8 371.072 361.611 362.497C375.422 353.921 385.694 340.662 393.986 326.697C404.251 309.409 412.087 289.814 410.876 269.756C409.665 249.698 397.591 229.364 378.44 223.158C358.844 216.808 335.911 225.737 317.556 216.398C298.29 206.593 293.142 180.711 297.685 159.616C302.228 138.522 313.825 119.547 319.515 98.7293C325.204 77.9119 323.179 52.2423 305.773 39.4388C288.624 26.8185 263.802 32.1152 245.83 43.5381C238.033 48.4952 230.613 54.5933 221.607 56.686C212.601 58.7787 201.288 55.055 198.878 46.1505C197.453 40.8788 199.454 35.3505 201.559 30.3042C207.858 15.2374 203.685 -2.88777 184.039 2.54353C166.833 7.30806 155.218 26.1329 152.472 42.7728Z" fill="#D8E8FD"/>
<path d="M341.941 304.735C352.034 296.8 363.912 291.526 375.274 285.535C386.636 279.543 397.882 272.5 405.426 262.119C398.356 282.739 391.082 303.745 377.927 321.14C371.271 330.085 362.872 337.595 353.234 343.219C346.983 346.782 329.118 355.668 321.808 351.077C307.975 342.394 334.278 310.763 341.941 304.735Z" fill="#92D96C"/>
<path d="M388.947 286.104L319.846 349.405" stroke="#7AD945" stroke-miterlimit="10"/>
<path d="M350.897 298.564L341.878 329.22L377.924 321.144" fill="#92D96C"/>
<path d="M350.897 298.564L341.878 329.22L377.924 321.144" stroke="#F8F8F8" stroke-miterlimit="10"/>
<path d="M309.627 297.368C315.602 292.627 313.505 283.256 310.882 276.1C308.259 268.944 306.283 259.508 312.354 254.893C319.292 249.615 331.41 255.5 337.061 248.867C340.545 244.773 339.04 238.655 339.186 233.288C339.378 226.293 343.292 219.148 349.781 216.496C356.271 213.845 364.957 217.022 367.037 223.704C370.082 233.469 359.063 243.477 361.92 253.299C363.467 258.621 368.567 261.931 372.826 265.483C377.085 269.034 381.079 274.442 379.285 279.682C376.016 289.243 359.545 285.532 353.711 293.798C348.948 300.547 354.586 309.393 356.938 317.307C367.282 352.13 325.288 358.222 302.123 348.067C292.201 343.716 287.176 336.423 285.701 325.725C284.745 318.791 285.199 311.951 290.119 306.52C295.655 300.401 303.676 302.093 309.627 297.368Z" fill="#E6F7DE"/>
<path d="M315.472 352.485C355.189 280.8 349.789 216.501 349.789 216.501" stroke="#F8F8F8" stroke-miterlimit="10"/>
<path d="M312.363 254.893L333.633 312.637" stroke="#F8F8F8" stroke-miterlimit="10"/>
<path d="M379.297 279.682L342.655 283.452" stroke="#F8F8F8" stroke-miterlimit="10"/>
<path d="M290.119 306.52L322.784 338.353L358.55 327.577" stroke="#F8F8F8" stroke-miterlimit="10"/>
<path d="M114.75 121.632C143.439 121.632 166.696 98.4262 166.696 69.8009C166.696 41.1757 143.439 17.9703 114.75 17.9703C86.0615 17.9703 62.8044 41.1757 62.8044 69.8009C62.8044 98.4262 86.0615 121.632 114.75 121.632Z" fill="#5598F6"/>
<path d="M335.326 202.857C338.692 202.857 341.42 200.134 341.42 196.776C341.42 193.418 338.692 190.695 335.326 190.695C331.96 190.695 329.231 193.418 329.231 196.776C329.231 200.134 331.96 202.857 335.326 202.857Z" fill="#C4C8E5"/>
<path d="M24.9518 211.863C24.9518 213.066 24.5943 214.242 23.9247 215.242C23.255 216.242 22.3032 217.021 21.1896 217.481C20.076 217.941 18.8506 218.062 17.6684 217.827C16.4862 217.593 15.4003 217.013 14.548 216.163C13.6956 215.313 13.1152 214.229 12.88 213.05C12.6449 211.87 12.7656 210.647 13.2269 209.536C13.6881 208.425 14.4693 207.475 15.4715 206.807C16.4737 206.139 17.652 205.782 18.8574 205.782C20.4737 205.782 22.0238 206.423 23.1668 207.563C24.3097 208.704 24.9518 210.25 24.9518 211.863Z" fill="#C6C7E5"/>
<path d="M286.366 53.3615H323.256V139.7" stroke="#212529" stroke-width="0.893" stroke-miterlimit="10"/>
<path d="M115.554 75.7315V53.3615H260.143" stroke="#212529" stroke-width="0.893" stroke-miterlimit="10"/>
<path d="M169.428 353.575H115.554V121.652" stroke="#212529" stroke-width="0.893" stroke-miterlimit="10"/>
<path d="M323.256 264.611V353.566H245.392" stroke="#212529" stroke-width="0.893" stroke-miterlimit="10"/>
<path d="M316.541 61.3613H122.269V345.569H316.541V61.3613Z" fill="white" stroke="#212529"/>
<path d="M300.725 109.65H141.898V131.757H300.725V109.65Z" fill="#5598F6"/>
<path d="M273.252 189.456C275.465 189.456 277.656 189.021 279.701 188.176C281.745 187.331 283.602 186.093 285.167 184.532C286.732 182.971 287.973 181.117 288.82 179.077C289.666 177.038 290.102 174.851 290.102 172.644V172.644C290.102 170.436 289.666 168.25 288.819 166.21C287.972 164.17 286.731 162.317 285.167 160.756C283.602 159.195 281.744 157.957 279.7 157.112C277.656 156.268 275.465 155.833 273.252 155.833V155.833C271.04 155.833 268.849 156.268 266.804 157.112C264.76 157.957 262.903 159.195 261.338 160.756C259.773 162.317 258.532 164.17 257.685 166.21C256.839 168.25 256.403 170.436 256.403 172.644V172.644C256.403 174.851 256.838 177.038 257.685 179.077C258.532 181.117 259.773 182.971 261.337 184.532C262.902 186.093 264.76 187.331 266.804 188.176C268.848 189.021 271.04 189.456 273.252 189.456V189.456Z" stroke="white" stroke-width="2" stroke-miterlimit="10"/>
<path d="M265.197 169.418L273.252 178.397L300.058 157.412" stroke="#0D6CF2" stroke-width="3" stroke-linecap="round" stroke-linejoin="round"/>
<path d="M138.752 172.644H248.351" stroke="white" stroke-width="2" stroke-linecap="round" stroke-linejoin="round"/>
<path d="M138.752 183.137H248.351" stroke="black" stroke-width="2" stroke-miterlimit="10"/>
<path d="M273.252 243.368C277.72 243.368 282.004 241.597 285.164 238.446C288.323 235.294 290.099 231.02 290.1 226.562C290.1 224.354 289.664 222.168 288.817 220.129C287.971 218.089 286.729 216.236 285.165 214.675C283.6 213.114 281.743 211.876 279.698 211.031C277.654 210.186 275.463 209.752 273.251 209.752V209.752C271.038 209.752 268.847 210.186 266.803 211.031C264.758 211.876 262.901 213.114 261.336 214.675C259.772 216.236 258.531 218.089 257.684 220.129C256.837 222.168 256.401 224.354 256.401 226.562V226.562C256.402 231.02 258.178 235.295 261.339 238.447C264.499 241.599 268.784 243.369 273.252 243.368Z" stroke="white" stroke-width="2" stroke-miterlimit="10"/>
<path d="M265.197 223.332L273.252 232.311L300.058 211.326" stroke="#0D6CF2" stroke-width="3" stroke-linecap="round" stroke-linejoin="round"/>
<path d="M138.752 224.244H248.351" stroke="#212528" stroke-width="2"/>
<path d="M138.752 234.736H248.351" stroke="black" stroke-width="2" stroke-miterlimit="10"/>
<path d="M273.252 297.279C275.465 297.279 277.656 296.844 279.7 296C281.744 295.155 283.602 293.917 285.167 292.356C286.731 290.795 287.972 288.941 288.819 286.902C289.666 284.862 290.102 282.676 290.102 280.468C290.102 278.26 289.666 276.074 288.82 274.034C287.973 271.994 286.732 270.141 285.167 268.58C283.602 267.019 281.745 265.78 279.701 264.936C277.656 264.091 275.465 263.656 273.252 263.656V263.656C271.04 263.656 268.848 264.091 266.804 264.936C264.76 265.78 262.902 267.019 261.337 268.58C259.773 270.141 258.532 271.994 257.685 274.034C256.838 276.074 256.403 278.26 256.403 280.468C256.403 282.676 256.839 284.862 257.685 286.902C258.532 288.941 259.773 290.795 261.338 292.356C262.903 293.917 264.76 295.155 266.804 296C268.849 296.844 271.04 297.279 273.252 297.279V297.279Z" stroke="white" stroke-width="2" stroke-miterlimit="10"/>
<path d="M265.197 277.242L273.252 286.222L300.058 265.237" stroke="#0D6CF2" stroke-width="3" stroke-linecap="round" stroke-linejoin="round"/>
<path d="M138.752 279.078H248.351" stroke="white" stroke-width="2" stroke-miterlimit="10"/>
<path d="M138.752 289.57H248.351" stroke="#212529" stroke-width="2" stroke-miterlimit="10"/>
<path d="M345.921 335.526H306.735V374.625H345.921V335.526Z" fill="#5598F6"/>
<path d="M363.34 166.625C372.378 166.625 379.704 159.315 379.704 150.297C379.704 141.279 372.378 133.969 363.34 133.969C354.302 133.969 346.975 141.279 346.975 150.297C346.975 159.315 354.302 166.625 363.34 166.625Z" stroke="#0D6CF2" stroke-width="2" stroke-miterlimit="10"/>
<path d="M226.723 26.2926C228.022 26.2926 229.076 25.2414 229.076 23.9447C229.076 22.6481 228.022 21.5969 226.723 21.5969C225.423 21.5969 224.37 22.6481 224.37 23.9447C224.37 25.2414 225.423 26.2926 226.723 26.2926Z" fill="#0D6CF2"/>
<path d="M237.704 21.5969C238.169 21.5969 238.624 21.7346 239.011 21.9926C239.398 22.2506 239.7 22.6173 239.878 23.0463C240.056 23.4753 240.103 23.9474 240.012 24.4028C239.921 24.8582 239.697 25.2766 239.368 25.6049C239.039 25.9333 238.619 26.1569 238.163 26.2475C237.706 26.3381 237.233 26.2916 236.803 26.1139C236.373 25.9362 236.006 25.6352 235.747 25.2491C235.489 24.863 235.351 24.4091 235.351 23.9447C235.351 23.3221 235.599 22.7249 236.04 22.2846C236.481 21.8443 237.08 21.5969 237.704 21.5969V21.5969Z" fill="#0D6CF2"/>
<path d="M250.253 21.5969C250.719 21.5969 251.174 21.7346 251.561 21.9926C251.948 22.2506 252.249 22.6173 252.427 23.0463C252.605 23.4753 252.652 23.9474 252.561 24.4028C252.47 24.8582 252.246 25.2766 251.917 25.6049C251.588 25.9333 251.169 26.1569 250.713 26.2475C250.256 26.3381 249.783 26.2916 249.353 26.1139C248.923 25.9362 248.556 25.6352 248.297 25.2491C248.038 24.863 247.9 24.4091 247.9 23.9447C247.9 23.3221 248.148 22.7249 248.59 22.2846C249.031 21.8443 249.629 21.5969 250.253 21.5969V21.5969Z" fill="#0D6CF2"/>
<path d="M262.803 26.2926C264.103 26.2926 265.156 25.2414 265.156 23.9447C265.156 22.6481 264.103 21.5969 262.803 21.5969C261.503 21.5969 260.45 22.6481 260.45 23.9447C260.45 25.2414 261.503 26.2926 262.803 26.2926Z" fill="#0D6CF2"/>
<path d="M275.353 26.2926C276.652 26.2926 277.706 25.2414 277.706 23.9447C277.706 22.6481 276.652 21.5969 275.353 21.5969C274.053 21.5969 273 22.6481 273 23.9447C273 25.2414 274.053 26.2926 275.353 26.2926Z" fill="#0D6CF2"/>
<path d="M287.902 26.2926C289.202 26.2926 290.255 25.2414 290.255 23.9447C290.255 22.6481 289.202 21.5969 287.902 21.5969C286.603 21.5969 285.549 22.6481 285.549 23.9447C285.549 25.2414 286.603 26.2926 287.902 26.2926Z" fill="#0D6CF2"/>
<path d="M300.452 26.2926C301.751 26.2926 302.805 25.2414 302.805 23.9447C302.805 22.6481 301.751 21.5969 300.452 21.5969C299.152 21.5969 298.099 22.6481 298.099 23.9447C298.099 25.2414 299.152 26.2926 300.452 26.2926Z" fill="#0D6CF2"/>
<path d="M311.433 26.2926C312.732 26.2926 313.786 25.2414 313.786 23.9447C313.786 22.6481 312.732 21.5969 311.433 21.5969C310.133 21.5969 309.08 22.6481 309.08 23.9447C309.08 25.2414 310.133 26.2926 311.433 26.2926Z" fill="#0D6CF2"/>
<path d="M323.982 26.2926C325.282 26.2926 326.336 25.2414 326.336 23.9447C326.336 22.6481 325.282 21.5969 323.982 21.5969C322.683 21.5969 321.629 22.6481 321.629 23.9447C321.629 25.2414 322.683 26.2926 323.982 26.2926Z" fill="#0D6CF2"/>
<path d="M226.723 38.8143C228.022 38.8143 229.076 37.7631 229.076 36.4665C229.076 35.1698 228.022 34.1187 226.723 34.1187C225.423 34.1187 224.37 35.1698 224.37 36.4665C224.37 37.7631 225.423 38.8143 226.723 38.8143Z" fill="#0D6CF2"/>
<path d="M237.704 34.1187C238.169 34.1187 238.624 34.2563 239.011 34.5143C239.398 34.7723 239.7 35.139 239.878 35.568C240.056 35.997 240.103 36.4691 240.012 36.9245C239.921 37.38 239.697 37.7983 239.368 38.1266C239.039 38.455 238.619 38.6786 238.163 38.7692C237.706 38.8598 237.233 38.8133 236.803 38.6356C236.373 38.4579 236.006 38.157 235.747 37.7709C235.489 37.3848 235.351 36.9308 235.351 36.4665C235.351 35.8438 235.599 35.2466 236.04 34.8063C236.481 34.366 237.08 34.1187 237.704 34.1187V34.1187Z" fill="#0D6CF2"/>
<path d="M250.253 34.1187C250.719 34.1187 251.174 34.2563 251.561 34.5143C251.948 34.7723 252.249 35.139 252.427 35.568C252.605 35.997 252.652 36.4691 252.561 36.9245C252.47 37.38 252.246 37.7983 251.917 38.1266C251.588 38.455 251.169 38.6786 250.713 38.7692C250.256 38.8598 249.783 38.8133 249.353 38.6356C248.923 38.4579 248.556 38.157 248.297 37.7709C248.038 37.3848 247.9 36.9308 247.9 36.4665C247.9 35.8438 248.148 35.2466 248.59 34.8063C249.031 34.366 249.629 34.1187 250.253 34.1187V34.1187Z" fill="#0D6CF2"/>
<path d="M262.803 38.8143C264.103 38.8143 265.156 37.7631 265.156 36.4665C265.156 35.1698 264.103 34.1187 262.803 34.1187C261.503 34.1187 260.45 35.1698 260.45 36.4665C260.45 37.7631 261.503 38.8143 262.803 38.8143Z" fill="#0D6CF2"/>
<path d="M275.353 38.8143C276.652 38.8143 277.706 37.7631 277.706 36.4665C277.706 35.1698 276.652 34.1187 275.353 34.1187C274.053 34.1187 273 35.1698 273 36.4665C273 37.7631 274.053 38.8143 275.353 38.8143Z" fill="#0D6CF2"/>
<path d="M287.902 38.8143C289.202 38.8143 290.255 37.7631 290.255 36.4665C290.255 35.1698 289.202 34.1187 287.902 34.1187C286.603 34.1187 285.549 35.1698 285.549 36.4665C285.549 37.7631 286.603 38.8143 287.902 38.8143Z" fill="#0D6CF2"/>
<path d="M300.452 38.8143C301.751 38.8143 302.805 37.7631 302.805 36.4665C302.805 35.1698 301.751 34.1187 300.452 34.1187C299.152 34.1187 298.099 35.1698 298.099 36.4665C298.099 37.7631 299.152 38.8143 300.452 38.8143Z" fill="#0D6CF2"/>
<path d="M311.433 38.8143C312.732 38.8143 313.786 37.7631 313.786 36.4665C313.786 35.1698 312.732 34.1187 311.433 34.1187C310.133 34.1187 309.08 35.1698 309.08 36.4665C309.08 37.7631 310.133 38.8143 311.433 38.8143Z" fill="#0D6CF2"/>
<path d="M323.982 38.8143C325.282 38.8143 326.336 37.7631 326.336 36.4665C326.336 35.1698 325.282 34.1187 323.982 34.1187C322.683 34.1187 321.629 35.1698 321.629 36.4665C321.629 37.7631 322.683 38.8143 323.982 38.8143Z" fill="#0D6CF2"/>
<path d="M226.723 51.336C228.022 51.336 229.076 50.2849 229.076 48.9882C229.076 47.6915 228.022 46.6404 226.723 46.6404C225.423 46.6404 224.37 47.6915 224.37 48.9882C224.37 50.2849 225.423 51.336 226.723 51.336Z" fill="#0D6CF2"/>
<path d="M237.704 46.6404C238.169 46.6404 238.624 46.7781 239.011 47.0361C239.398 47.294 239.7 47.6607 239.878 48.0897C240.056 48.5187 240.103 48.9908 240.012 49.4462C239.921 49.9017 239.697 50.32 239.368 50.6484C239.039 50.9767 238.619 51.2003 238.163 51.2909C237.706 51.3815 237.233 51.335 236.803 51.1573C236.373 50.9796 236.006 50.6787 235.747 50.2926C235.489 49.9065 235.351 49.4526 235.351 48.9882C235.351 48.3655 235.599 47.7683 236.04 47.328C236.481 46.8877 237.08 46.6404 237.704 46.6404V46.6404Z" fill="#0D6CF2"/>
<path d="M250.253 46.6404C250.719 46.6404 251.174 46.7781 251.561 47.0361C251.948 47.294 252.249 47.6607 252.427 48.0897C252.605 48.5187 252.652 48.9908 252.561 49.4462C252.47 49.9017 252.246 50.32 251.917 50.6484C251.588 50.9767 251.169 51.2003 250.713 51.2909C250.256 51.3815 249.783 51.335 249.353 51.1573C248.923 50.9796 248.556 50.6787 248.297 50.2926C248.038 49.9065 247.9 49.4526 247.9 48.9882C247.9 48.3655 248.148 47.7683 248.59 47.328C249.031 46.8877 249.629 46.6404 250.253 46.6404V46.6404Z" fill="#0D6CF2"/>
<path d="M262.803 51.336C264.103 51.336 265.156 50.2849 265.156 48.9882C265.156 47.6915 264.103 46.6404 262.803 46.6404C261.503 46.6404 260.45 47.6915 260.45 48.9882C260.45 50.2849 261.503 51.336 262.803 51.336Z" fill="#0D6CF2"/>
<path d="M275.353 51.336C276.652 51.336 277.706 50.2849 277.706 48.9882C277.706 47.6915 276.652 46.6404 275.353 46.6404C274.053 46.6404 273 47.6915 273 48.9882C273 50.2849 274.053 51.336 275.353 51.336Z" fill="#0D6CF2"/>
<path d="M287.902 51.336C289.202 51.336 290.255 50.2849 290.255 48.9882C290.255 47.6915 289.202 46.6404 287.902 46.6404C286.603 46.6404 285.549 47.6915 285.549 48.9882C285.549 50.2849 286.603 51.336 287.902 51.336Z" fill="#0D6CF2"/>
<path d="M300.452 51.336C301.751 51.336 302.805 50.2849 302.805 48.9882C302.805 47.6915 301.751 46.6404 300.452 46.6404C299.152 46.6404 298.099 47.6915 298.099 48.9882C298.099 50.2849 299.152 51.336 300.452 51.336Z" fill="#0D6CF2"/>
<path d="M311.433 51.336C312.732 51.336 313.786 50.2849 313.786 48.9882C313.786 47.6915 312.732 46.6404 311.433 46.6404C310.133 46.6404 309.08 47.6915 309.08 48.9882C309.08 50.2849 310.133 51.336 311.433 51.336Z" fill="#0D6CF2"/>
<path d="M323.982 51.336C325.282 51.336 326.336 50.2849 326.336 48.9882C326.336 47.6915 325.282 46.6404 323.982 46.6404C322.683 46.6404 321.629 47.6915 321.629 48.9882C321.629 50.2849 322.683 51.336 323.982 51.336Z" fill="#0D6CF2"/>
<path d="M226.723 63.8578C228.022 63.8578 229.076 62.8066 229.076 61.5099C229.076 60.2133 228.022 59.1621 226.723 59.1621C225.423 59.1621 224.37 60.2133 224.37 61.5099C224.37 62.8066 225.423 63.8578 226.723 63.8578Z" fill="#0D6CF2"/>
<path d="M237.704 59.1621C238.169 59.1621 238.624 59.2998 239.011 59.5578C239.398 59.8158 239.7 60.1825 239.878 60.6115C240.056 61.0405 240.103 61.5125 240.012 61.968C239.921 62.4234 239.697 62.8417 239.368 63.1701C239.039 63.4984 238.619 63.7221 238.163 63.8126C237.706 63.9032 237.233 63.8567 236.803 63.679C236.373 63.5013 236.006 63.2004 235.747 62.8143C235.489 62.4282 235.351 61.9743 235.351 61.5099C235.351 60.8873 235.599 60.2901 236.04 59.8498C236.481 59.4095 237.08 59.1621 237.704 59.1621V59.1621Z" fill="#0D6CF2"/>
<path d="M250.253 59.1621C250.719 59.1621 251.174 59.2998 251.561 59.5578C251.948 59.8158 252.249 60.1825 252.427 60.6115C252.605 61.0405 252.652 61.5125 252.561 61.968C252.47 62.4234 252.246 62.8417 251.917 63.1701C251.588 63.4984 251.169 63.7221 250.713 63.8126C250.256 63.9032 249.783 63.8567 249.353 63.679C248.923 63.5013 248.556 63.2004 248.297 62.8143C248.038 62.4282 247.9 61.9743 247.9 61.5099C247.9 60.8873 248.148 60.2901 248.59 59.8498C249.031 59.4095 249.629 59.1621 250.253 59.1621V59.1621Z" fill="#0D6CF2"/>
<path d="M262.803 63.8578C264.103 63.8578 265.156 62.8066 265.156 61.5099C265.156 60.2133 264.103 59.1621 262.803 59.1621C261.503 59.1621 260.45 60.2133 260.45 61.5099C260.45 62.8066 261.503 63.8578 262.803 63.8578Z" fill="#0D6CF2"/>
<path d="M275.353 63.8578C276.652 63.8578 277.706 62.8066 277.706 61.5099C277.706 60.2133 276.652 59.1621 275.353 59.1621C274.053 59.1621 273 60.2133 273 61.5099C273 62.8066 274.053 63.8578 275.353 63.8578Z" fill="#0D6CF2"/>
<path d="M287.902 63.8578C289.202 63.8578 290.255 62.8066 290.255 61.5099C290.255 60.2133 289.202 59.1621 287.902 59.1621C286.603 59.1621 285.549 60.2133 285.549 61.5099C285.549 62.8066 286.603 63.8578 287.902 63.8578Z" fill="#0D6CF2"/>
<path d="M300.452 63.8578C301.751 63.8578 302.805 62.8066 302.805 61.5099C302.805 60.2133 301.751 59.1621 300.452 59.1621C299.152 59.1621 298.099 60.2133 298.099 61.5099C298.099 62.8066 299.152 63.8578 300.452 63.8578Z" fill="#0D6CF2"/>
<path d="M311.433 63.8578C312.732 63.8578 313.786 62.8066 313.786 61.5099C313.786 60.2133 312.732 59.1621 311.433 59.1621C310.133 59.1621 309.08 60.2133 309.08 61.5099C309.08 62.8066 310.133 63.8578 311.433 63.8578Z" fill="#0D6CF2"/>
<path d="M323.982 63.8578C325.282 63.8578 326.336 62.8066 326.336 61.5099C326.336 60.2133 325.282 59.1621 323.982 59.1621C322.683 59.1621 321.629 60.2133 321.629 61.5099C321.629 62.8066 322.683 63.8578 323.982 63.8578Z" fill="#0D6CF2"/>
<path d="M226.723 76.3795C228.022 76.3795 229.076 75.3283 229.076 74.0317C229.076 72.735 228.022 71.6838 226.723 71.6838C225.423 71.6838 224.37 72.735 224.37 74.0317C224.37 75.3283 225.423 76.3795 226.723 76.3795Z" fill="#0D6CF2"/>
<path d="M237.704 71.6838C238.169 71.6838 238.624 71.8215 239.011 72.0795C239.398 72.3375 239.7 72.7042 239.878 73.1332C240.056 73.5622 240.103 74.0343 240.012 74.4897C239.921 74.9451 239.697 75.3635 239.368 75.6918C239.039 76.0202 238.619 76.2438 238.163 76.3344C237.706 76.425 237.233 76.3785 236.803 76.2008C236.373 76.0231 236.006 75.7221 235.747 75.336C235.489 74.9499 235.351 74.496 235.351 74.0317C235.351 73.409 235.599 72.8118 236.04 72.3715C236.481 71.9312 237.08 71.6838 237.704 71.6838V71.6838Z" fill="#0D6CF2"/>
<path d="M250.253 71.6838C250.719 71.6838 251.174 71.8215 251.561 72.0795C251.948 72.3375 252.249 72.7042 252.427 73.1332C252.605 73.5622 252.652 74.0343 252.561 74.4897C252.47 74.9451 252.246 75.3635 251.917 75.6918C251.588 76.0202 251.169 76.2438 250.713 76.3344C250.256 76.425 249.783 76.3785 249.353 76.2008C248.923 76.0231 248.556 75.7221 248.297 75.336C248.038 74.9499 247.9 74.496 247.9 74.0317C247.9 73.409 248.148 72.8118 248.59 72.3715C249.031 71.9312 249.629 71.6838 250.253 71.6838V71.6838Z" fill="#0D6CF2"/>
<path d="M262.803 76.3795C264.103 76.3795 265.156 75.3283 265.156 74.0317C265.156 72.735 264.103 71.6838 262.803 71.6838C261.503 71.6838 260.45 72.735 260.45 74.0317C260.45 75.3283 261.503 76.3795 262.803 76.3795Z" fill="#0D6CF2"/>
<path d="M275.353 76.3795C276.652 76.3795 277.706 75.3283 277.706 74.0317C277.706 72.735 276.652 71.6838 275.353 71.6838C274.053 71.6838 273 72.735 273 74.0317C273 75.3283 274.053 76.3795 275.353 76.3795Z" fill="#0D6CF2"/>
<path d="M287.902 76.3795C289.202 76.3795 290.255 75.3283 290.255 74.0317C290.255 72.735 289.202 71.6838 287.902 71.6838C286.603 71.6838 285.549 72.735 285.549 74.0317C285.549 75.3283 286.603 76.3795 287.902 76.3795Z" fill="#0D6CF2"/>
<path d="M300.452 76.3795C301.751 76.3795 302.805 75.3283 302.805 74.0317C302.805 72.735 301.751 71.6838 300.452 71.6838C299.152 71.6838 298.099 72.735 298.099 74.0317C298.099 75.3283 299.152 76.3795 300.452 76.3795Z" fill="#0D6CF2"/>
<path d="M311.433 76.3795C312.732 76.3795 313.786 75.3283 313.786 74.0317C313.786 72.735 312.732 71.6838 311.433 71.6838C310.133 71.6838 309.08 72.735 309.08 74.0317C309.08 75.3283 310.133 76.3795 311.433 76.3795Z" fill="#0D6CF2"/>
<path d="M323.982 76.3795C325.282 76.3795 326.336 75.3283 326.336 74.0317C326.336 72.735 325.282 71.6838 323.982 71.6838C322.683 71.6838 321.629 72.735 321.629 74.0317C321.629 75.3283 322.683 76.3795 323.982 76.3795Z" fill="#0D6CF2"/>
<path d="M226.723 88.9012C228.022 88.9012 229.076 87.8501 229.076 86.5534C229.076 85.2567 228.022 84.2056 226.723 84.2056C225.423 84.2056 224.37 85.2567 224.37 86.5534C224.37 87.8501 225.423 88.9012 226.723 88.9012Z" fill="#0D6CF2"/>
<path d="M237.704 84.2056C238.169 84.2056 238.624 84.3433 239.011 84.6012C239.398 84.8592 239.7 85.2259 239.878 85.6549C240.056 86.0839 240.103 86.556 240.012 87.0114C239.921 87.4669 239.697 87.8852 239.368 88.2136C239.039 88.5419 238.619 88.7655 238.163 88.8561C237.706 88.9467 237.233 88.9002 236.803 88.7225C236.373 88.5448 236.006 88.2439 235.747 87.8578C235.489 87.4717 235.351 87.0177 235.351 86.5534C235.351 85.9307 235.599 85.3335 236.04 84.8932C236.481 84.4529 237.08 84.2056 237.704 84.2056V84.2056Z" fill="#0D6CF2"/>
<path d="M250.253 84.2056C250.719 84.2056 251.174 84.3433 251.561 84.6012C251.948 84.8592 252.249 85.2259 252.427 85.6549C252.605 86.0839 252.652 86.556 252.561 87.0114C252.47 87.4669 252.246 87.8852 251.917 88.2136C251.588 88.5419 251.169 88.7655 250.713 88.8561C250.256 88.9467 249.783 88.9002 249.353 88.7225C248.923 88.5448 248.556 88.2439 248.297 87.8578C248.038 87.4717 247.9 87.0177 247.9 86.5534C247.9 85.9307 248.148 85.3335 248.59 84.8932C249.031 84.4529 249.629 84.2056 250.253 84.2056V84.2056Z" fill="#0D6CF2"/>
<path d="M262.803 88.9012C264.103 88.9012 265.156 87.8501 265.156 86.5534C265.156 85.2567 264.103 84.2056 262.803 84.2056C261.503 84.2056 260.45 85.2567 260.45 86.5534C260.45 87.8501 261.503 88.9012 262.803 88.9012Z" fill="#0D6CF2"/>
<path d="M275.353 88.9012C276.652 88.9012 277.706 87.8501 277.706 86.5534C277.706 85.2567 276.652 84.2056 275.353 84.2056C274.053 84.2056 273 85.2567 273 86.5534C273 87.8501 274.053 88.9012 275.353 88.9012Z" fill="#0D6CF2"/>
<path d="M287.902 88.9012C289.202 88.9012 290.255 87.8501 290.255 86.5534C290.255 85.2567 289.202 84.2056 287.902 84.2056C286.603 84.2056 285.549 85.2567 285.549 86.5534C285.549 87.8501 286.603 88.9012 287.902 88.9012Z" fill="#0D6CF2"/>
<path d="M300.452 88.9012C301.751 88.9012 302.805 87.8501 302.805 86.5534C302.805 85.2567 301.751 84.2056 300.452 84.2056C299.152 84.2056 298.099 85.2567 298.099 86.5534C298.099 87.8501 299.152 88.9012 300.452 88.9012Z" fill="#0D6CF2"/>
<path d="M311.433 88.9012C312.732 88.9012 313.786 87.8501 313.786 86.5534C313.786 85.2567 312.732 84.2056 311.433 84.2056C310.133 84.2056 309.08 85.2567 309.08 86.5534C309.08 87.8501 310.133 88.9012 311.433 88.9012Z" fill="#0D6CF2"/>
<path d="M323.982 88.9012C325.282 88.9012 326.336 87.8501 326.336 86.5534C326.336 85.2567 325.282 84.2056 323.982 84.2056C322.683 84.2056 321.629 85.2567 321.629 86.5534C321.629 87.8501 322.683 88.9012 323.982 88.9012Z" fill="#0D6CF2"/>
<path d="M64.8799 230.018V271.027L87.0394 381.746H92.2537L85.0848 268.267L96.4108 225.286L64.8799 230.018Z" fill="#6C757D"/>
<path d="M77.7889 130.409C77.7889 130.905 77.6417 131.389 77.3659 131.801C77.0901 132.212 76.6981 132.533 76.2395 132.723C75.7808 132.913 75.2762 132.962 74.7893 132.865C74.3024 132.769 73.8552 132.53 73.5042 132.18C73.1532 131.83 72.9141 131.384 72.8173 130.898C72.7204 130.412 72.7701 129.909 72.9601 129.451C73.1501 128.993 73.4718 128.602 73.8845 128.327C74.2973 128.052 74.7825 127.905 75.279 127.905C75.9446 127.905 76.583 128.169 77.0537 128.638C77.5244 129.108 77.7889 129.745 77.7889 130.409Z" fill="#E073EB"/>
<path d="M94.6226 123.726C94.6226 124.221 94.4754 124.705 94.1996 125.117C93.9238 125.529 93.5318 125.85 93.0732 126.039C92.6146 126.229 92.1099 126.279 91.623 126.182C91.1362 126.085 90.689 125.847 90.3379 125.497C89.9869 125.146 89.7479 124.7 89.651 124.214C89.5542 123.729 89.6039 123.225 89.7938 122.767C89.9838 122.31 90.3055 121.919 90.7183 121.644C91.131 121.368 91.6163 121.221 92.1127 121.221C92.7784 121.221 93.4168 121.485 93.8875 121.955C94.3582 122.425 94.6226 123.062 94.6226 123.726Z" fill="#E073EB"/>
<path d="M90.3619 130.639L94.6225 144.784L81.0234 147.359L82.1325 133.137L90.3619 130.639Z" fill="#F6A1FE"/>
<path d="M70.4409 117.682L78.537 138.681L93.8287 133.295L90.8309 109.661L70.4409 117.682Z" fill="#F6A1FE"/>
<path d="M74.6482 128.436L65.9231 115.735L68.6699 112.963L67.5718 106.826L95.4555 93.9491L90.7588 106.826L93.7487 108.758L92.2098 120.633L90.7604 109.676L73.0246 118.235L74.6482 128.436Z" fill="#FFCC66"/>
<path d="M83.0754 121.264L87.8192 128.351L84.4073 130.176L83.0754 121.264Z" fill="#E073EB"/>
<path d="M100.936 395.998C135.026 395.998 162.662 393.001 162.662 389.302C162.662 385.604 135.026 382.606 100.936 382.606C66.8465 382.606 39.2112 385.604 39.2112 389.302C39.2112 393.001 66.8465 395.998 100.936 395.998Z" fill="#EDF0F5"/>
<path d="M53.1477 151.147L115.714 139.298L120.928 222.028L64.8863 229.959L53.1477 151.147Z" fill="#5598F6"/>
<path d="M96.4092 225.484L104.634 281.005V381.744H109.848L122.883 277.438L120.928 221.801L96.4092 225.484Z" fill="#6C757D"/>
<path d="M74.9244 145.288L39.5439 116.116L29.1528 122.654L56.0969 169.224L74.9244 145.288Z" fill="#5598F6"/>
<path d="M104.097 139.537L129.024 108.911L139.596 115.001L117.913 172.24L104.097 139.537Z" fill="#5598F6"/>
<path d="M87.0378 156.663L92.1189 215.889" stroke="#0D6CF2" stroke-width="1.258" stroke-miterlimit="10"/>
<path d="M39.5642 116.127L19.7798 86.7005C19.7798 86.7005 20.8606 77.9651 19.6762 75.6704C18.4919 73.3758 15.0407 77.519 15.0407 77.519C15.0407 77.519 12.0602 69.6538 9.37614 70.4974C6.69209 71.3411 3.16722 77.0713 4.32178 80.8936C5.47635 84.7158 13.9975 85.7708 13.9975 85.7708L29.1543 122.674L39.5642 116.127Z" fill="#F6A1FE"/>
<path d="M129.029 108.966L157.689 59.7756C157.689 59.7756 150.354 54.9031 150.04 53.28C149.726 51.6569 156.432 53.28 156.432 53.28C156.432 53.28 155.163 47.1099 157.687 45.5102C160.211 43.9106 164.866 43.4582 166.54 46.8829C168.213 50.3076 164.383 59.2106 164.383 59.2106L139.597 115.089L129.029 108.966Z" fill="#F6A1FE"/>
<path d="M91.6279 131.81L81.2839 141.001L81.7294 135.301L91.6279 131.81Z" fill="#351C56"/>
<path d="M81.025 144.831L74.9243 145.986L86.4574 151.778L81.025 144.831Z" fill="white"/>
<path d="M94.6226 142.13L90.7322 150.64L100.929 140.935L94.6226 142.13Z" fill="white"/>
<path d="M56.1569 168.934L37.0875 135.975L64.1861 158.722L56.1569 168.934Z" fill="#0D6CF2" stroke="#0D6CF2"/>
<path d="M67.5545 155.907L56.103 170.473" stroke="white" stroke-miterlimit="10"/>
<path d="M117.889 171.665L112.658 159.283L132.18 133.941L117.889 171.665Z" fill="#0D6CF2" stroke="#0D6CF2"/>
<path d="M108.452 151.233L117.915 173.631" stroke="white" stroke-miterlimit="10"/>
<path d="M87.0378 381.75C83.3639 383.868 67.553 389.304 67.553 389.304L92.1189 387.218V381.75H87.0378Z" fill="#351C56"/>
<path d="M109.848 381.75C113.524 383.868 129.332 389.304 129.332 389.304L104.766 387.218V381.75H109.848Z" fill="#351C56"/>
<path d="M92.6061 241.888L84.8134 271.204L80.0347 272.979" stroke="white" stroke-width="0.8" stroke-miterlimit="10"/>
<path d="M104.767 373.179H110.984" stroke="#351C56" stroke-width="1.258" stroke-miterlimit="10"/>
<path d="M92.1189 375.502L85.8865 376.33" stroke="#351C56" stroke-width="1.258" stroke-miterlimit="10"/>
<path d="M97.2024 225.301L103.725 279.762L111.107 283.766" stroke="white" stroke-width="0.800116" stroke-miterlimit="10"/>
</g>
<defs>
<clipPath id="clip0_67_112799">
<rect width="411" height="396" fill="white"/>
</clipPath>
</defs>
</svg>
