<svg width="52" height="60" viewBox="0 0 52 60" fill="none" xmlns="http://www.w3.org/2000/svg">
<rect width="52" height="60" fill="#0D6CF2"/>
<path fill-rule="evenodd" clip-rule="evenodd" d="M41.1214 33.5534H41.1127C41.0011 37.4117 39.3681 41.0761 36.5591 43.772C33.75 46.4679 29.9851 47.9841 26.06 47.9999C17.7104 48.0327 10.7627 41.4015 10.8801 33.1913C10.9888 25.6725 16.2159 22.0268 21.6391 21.1234C24.1061 20.7122 26.9695 21.0116 29.4633 21.0087C29.4687 25.2524 26.5952 27.5832 23.768 28.4281C21.9286 28.9776 19.8632 30.7119 20.1527 33.9336C20.1584 35.3167 20.7225 36.641 21.721 37.6151C22.7195 38.5892 24.0706 39.1334 25.4771 39.1278C26.8836 39.1223 28.2303 38.5676 29.2209 37.5856C30.2115 36.6037 30.7648 35.275 30.7592 33.8919C30.7592 33.7918 30.7548 33.6927 30.749 33.5944H30.758L30.7917 20.9581C31.0414 18.2734 33.4324 12.047 41.0333 12L41.1192 33.072L41.1214 33.5534Z" fill="white"/>
</svg>
