<svg width="228" height="146" viewBox="0 0 228 146" fill="none" xmlns="http://www.w3.org/2000/svg">
<path opacity="0.2" d="M73.0587 115.854C38.2747 118.771 8.41567 105.246 1.47467 81.054C-6.98533 51.566 21.7997 17.395 65.7787 4.73101C101.235 -5.47999 135.736 1.40701 152.208 19.915C178.055 21.596 198.97 34.034 204.608 53.697C212.651 81.728 186.608 113.828 146.448 125.397C137.084 128.124 127.384 129.526 117.632 129.563C99.8997 129.561 84.0197 124.641 73.0587 115.854Z" fill="#D8E8FD"/>
<g opacity="0.3">
<path opacity="0.3" d="M68.431 107.755C70.7789 108.191 74.9827 101.961 74.7625 96.3524C74.5424 90.7437 69.3563 91.8206 71.1412 81.5631C72.9262 71.3057 75.1208 66.4674 64.9104 57.4758C54.7 48.4842 55.8834 39.3594 47.6814 40.3468C39.4795 41.3341 41.5333 53.206 47.3549 61.2309C53.1765 69.2557 52.7133 71.9233 45.8662 74.851C39.0191 77.7787 51.8072 87.0064 53.4356 89.7203C55.064 92.4343 54.2547 99.7839 57.3247 103.099C60.3947 106.415 66.0831 107.319 68.431 107.755Z" fill="url(#paint0_linear_67_111984)"/>
<path opacity="0.3" d="M65.0301 93.7072C63.7802 91.6233 59.3616 85.448 54.1328 83.2151" stroke="#707070" stroke-width="3" stroke-miterlimit="10" stroke-linecap="round"/>
<path opacity="0.3" d="M62.2072 78.8605C60.9562 76.7784 65.9186 71.7994 66.4062 66.1259" stroke="#707070" stroke-width="3" stroke-miterlimit="10" stroke-linecap="round"/>
<path opacity="0.3" d="M70.8401 119.587C70.3076 118.701 69.4353 113.787 68.1147 108.281C63.9793 91.0381 60.6206 68.7622 53.2018 56.39" stroke="#707070" stroke-width="3" stroke-miterlimit="10" stroke-linecap="round"/>
</g>
<g opacity="0.3">
<path opacity="0.3" d="M152.771 127.154C152.64 119.502 158.62 95.7121 167.018 82.6096" stroke="#707070" stroke-width="3.00043" stroke-miterlimit="10" stroke-linecap="round"/>
<path opacity="0.3" d="M155.936 74.3401C156.986 73.7101 159.436 75.8713 161.413 79.1692C163.389 82.4671 164.138 85.6532 163.091 86.283C162.043 86.9129 159.587 84.7466 157.612 81.4505C155.637 78.1543 154.886 74.9701 155.936 74.3401Z" fill="url(#paint1_linear_67_111984)"/>
<path opacity="0.3" d="M165.323 87.5592C165.387 88.7833 168.545 89.6139 172.378 89.4143C176.211 89.2148 179.266 88.0607 179.203 86.8365C179.139 85.6124 175.98 84.7819 172.147 84.9814C168.315 85.181 165.259 86.3351 165.323 87.5592Z" fill="url(#paint2_linear_67_111984)"/>
<path opacity="0.3" d="M161.356 97.3718C161.356 98.5977 164.469 99.5914 168.308 99.5914C172.148 99.5914 175.26 98.5977 175.26 97.3718C175.26 96.1459 172.148 95.1522 168.308 95.1522C164.469 95.1522 161.356 96.1459 161.356 97.3718Z" fill="url(#paint3_linear_67_111984)"/>
<path opacity="0.3" d="M158.162 107.224C158.162 108.45 161.274 109.444 165.114 109.444C168.953 109.444 172.066 108.45 172.066 107.224C172.066 105.998 168.953 105.004 165.114 105.004C161.274 105.004 158.162 105.998 158.162 107.224Z" fill="url(#paint4_linear_67_111984)"/>
<path opacity="0.3" d="M175.099 69.326C176.138 69.9756 175.327 73.1486 173.29 76.41C171.253 79.6715 168.76 81.7898 167.722 81.1393C166.684 80.4889 167.492 77.321 169.53 74.0587C171.567 70.7963 174.062 68.6769 175.099 69.326Z" fill="url(#paint5_linear_67_111984)"/>
<path opacity="0.3" d="M149.552 85.9132C150.462 85.0945 153.28 86.747 155.847 89.6064C158.414 92.4658 159.758 95.4489 158.849 96.2677C157.94 97.0865 155.12 95.4332 152.551 92.5716C149.982 89.7099 148.641 86.7326 149.552 85.9132Z" fill="url(#paint6_linear_67_111984)"/>
<path opacity="0.3" d="M145.095 97.2109C145.915 96.3008 148.889 97.6497 151.742 100.224C154.594 102.799 156.241 105.625 155.422 106.536C154.603 107.446 151.628 106.097 148.773 103.519C145.918 100.94 144.275 98.1202 145.095 97.2109Z" fill="url(#paint7_linear_67_111984)"/>
</g>
<path opacity="0.473" d="M63.5617 34.25L82.7387 19.55" stroke="#707070" stroke-width="2" stroke-miterlimit="10" stroke-linecap="round" stroke-linejoin="round"/>
<path opacity="0.473" d="M63.7507 41.638L78.8767 30.038" stroke="#707070" stroke-width="2" stroke-miterlimit="10" stroke-linecap="round" stroke-linejoin="round"/>
<path opacity="0.473" d="M144.993 64.536L154.582 57.187C154.582 57.187 152.182 59.025 154.582 57.187L164.17 49.836" stroke="#707070" stroke-width="2" stroke-miterlimit="10" stroke-linecap="round" stroke-linejoin="round"/>
<path opacity="0.473" d="M145.182 71.924L160.308 60.324" stroke="#707070" stroke-width="2" stroke-miterlimit="10" stroke-linecap="round" stroke-linejoin="round"/>
<path d="M109.355 130.879C133.294 130.879 152.708 127.579 152.708 123.524C152.708 119.469 133.294 116.173 109.355 116.173C85.4157 116.173 66.0007 119.464 66.0007 123.524C66.0007 127.584 85.4107 130.879 109.355 130.879Z" fill="#8673E6" fill-opacity="0.4"/>
<path d="M106.864 126.771C107.802 127.003 111.712 124.797 112.664 124.899C117.201 125.386 120.634 123.881 124.68 122.825C131.758 120.978 139.124 116.489 139.124 113.566C139.126 108.621 125.754 106.56 110.321 106.56C94.8877 106.56 81.0867 107.77 81.0867 112.716C81.0867 116.116 88.1587 119.704 96.1787 122.826C99.8097 124.238 102.749 125.754 106.864 126.771Z" fill="#553DCC" fill-opacity="0.1"/>
<path d="M127.264 132.355C128.564 133.199 140.524 136.328 142.14 136.872C143.756 137.416 148.54 136.994 149.24 133.349C149.94 129.704 148.54 127.892 144.662 126.494C140.784 125.096 130.339 123.622 129.153 123.675C127.967 123.728 125.696 125.554 125.725 127.327C125.754 129.1 125.964 131.511 127.264 132.355Z" fill="url(#paint8_radial_67_111984)"/>
<path d="M127.264 132.355C128.564 133.199 140.524 136.328 142.14 136.872C143.756 137.416 148.54 136.994 149.24 133.349C149.94 129.704 148.54 127.892 144.662 126.494C140.784 125.096 130.339 123.622 129.153 123.675C127.967 123.728 125.696 125.554 125.725 127.327C125.754 129.1 125.964 131.511 127.264 132.355Z" fill="url(#paint9_linear_67_111984)"/>
<path d="M127.264 132.355C128.564 133.199 140.524 136.328 142.14 136.872C143.756 137.416 148.54 136.994 149.24 133.349C149.94 129.704 148.54 127.892 144.662 126.494C140.784 125.096 130.339 123.622 129.153 123.675C127.967 123.728 125.696 125.554 125.725 127.327C125.754 129.1 125.964 131.511 127.264 132.355Z" fill="#D8D8D8" fill-opacity="0.2"/>
<path opacity="0.142" d="M128.332 134.899C131.152 133.873 142.566 128.507 142.566 126.034C142.566 123.561 128.444 120.213 127.255 123.124C126.066 126.035 125.511 135.926 128.332 134.899Z" fill="#20355F"/>
<path d="M123.218 131.302L130.045 132.613C132.877 130.309 133.278 127.681 131.25 124.728C129.173 124.023 127.052 123.458 124.9 123.037L123.218 131.302Z" fill="url(#paint10_linear_67_111984)"/>
<path d="M128.139 124.829C128.825 127.555 128.878 130.402 128.294 133.152C127.294 137.491 120.401 129.959 120.401 129.959L128.139 124.829Z" fill="url(#paint11_linear_67_111984)"/>
<path d="M95.6387 132.466C94.3117 133.266 82.2487 135.974 80.6147 136.461C78.9807 136.948 74.2147 136.361 73.6467 132.692C73.0787 129.023 74.5347 127.263 78.4617 126.001C82.3887 124.739 92.8697 123.631 94.0527 123.726C95.2357 123.821 97.4427 125.726 97.3527 127.495C97.2627 129.264 96.9657 131.668 95.6387 132.466Z" fill="url(#paint12_radial_67_111984)"/>
<path d="M95.6387 132.466C94.3117 133.266 82.2487 135.974 80.6147 136.461C78.9807 136.948 74.2147 136.361 73.6467 132.692C73.0787 129.023 74.5347 127.263 78.4617 126.001C82.3887 124.739 92.8697 123.631 94.0527 123.726C95.2357 123.821 97.4427 125.726 97.3527 127.495C97.2627 129.264 96.9657 131.668 95.6387 132.466Z" fill="url(#paint13_radial_67_111984)"/>
<path d="M95.6387 132.466C94.3117 133.266 82.2487 135.974 80.6147 136.461C78.9807 136.948 74.2147 136.361 73.6467 132.692C73.0787 129.023 74.5347 127.263 78.4617 126.001C82.3887 124.739 92.8697 123.631 94.0527 123.726C95.2357 123.821 97.4427 125.726 97.3527 127.495C97.2627 129.264 96.9657 131.668 95.6387 132.466Z" fill="url(#paint14_radial_67_111984)"/>
<path opacity="0.142" d="M79.8807 125.274C79.8807 125.274 91.2167 135.915 95.0887 134.521C98.9607 133.127 98.0727 120.621 94.0547 120.621C90.0367 120.621 79.8807 125.274 79.8807 125.274Z" fill="#351C56"/>
<path d="M99.7127 131.553L92.8487 132.631C90.0987 130.231 89.7887 127.59 91.9187 124.708C94.0184 124.075 96.1582 123.585 98.3237 123.239L99.7127 131.553Z" fill="url(#paint15_linear_67_111984)"/>
<path d="M93.7967 133.819V126.429C93.7967 124.609 102.479 130.029 102.479 130.029C102.479 130.029 98.8337 133.229 97.1787 133.823C96.0767 134.162 94.8979 134.161 93.7967 133.819V133.819Z" fill="url(#paint16_linear_67_111984)"/>
<path d="M88.1287 93.72C88.1287 94.06 87.5597 99.409 85.3487 102.12C82.5697 105.537 73.7227 103.508 74.9727 106.188C78.8337 114.458 97.8247 124.248 110.672 124.248C121.089 124.248 134.988 119.635 146.52 107.356C148.389 105.366 135.514 105.767 128.712 100.941C127.433 100.034 126.188 97.893 124.976 94.519C100.411 92.789 88.1287 92.5227 88.1287 93.72Z" fill="url(#paint17_linear_67_111984)"/>
<path d="M100.734 101.539C102.8 102.702 115.271 105.778 118.179 99.832C121.087 93.886 100.734 97.697 100.734 97.697C100.734 97.697 98.6667 100.378 100.734 101.539Z" fill="url(#paint18_linear_67_111984)"/>
<path opacity="0.3" d="M112.187 110.777C112.187 107.711 113.452 104.249 116.942 100.411C120.432 96.573 123.424 110.778 123.424 110.778C123.424 110.778 112.187 113.845 112.187 110.777Z" fill="url(#paint19_linear_67_111984)"/>
<path opacity="0.3" d="M107.778 110.777C107.778 107.709 106.513 104.249 103.023 100.41C99.5327 96.571 96.5407 110.777 96.5407 110.777C96.5407 110.777 107.778 113.845 107.778 110.777Z" fill="url(#paint20_linear_67_111984)"/>
<path d="M117.624 43.107H96.3247V29.724H117.625L117.624 43.107Z" fill="#553DCC"/>
<path d="M101.783 37.431C101.783 39.452 101.935 40.424 100.873 42.197C99.8107 43.97 94.3787 54.648 98.0807 59.421C101.783 64.194 116.996 64.577 117.641 58.28C118.286 51.983 114.241 43.544 113.041 41.154C112.108 39.2034 111.95 36.9716 112.599 34.909C113.041 33.873 101.783 35.41 101.783 37.431Z" fill="url(#paint21_linear_67_111984)"/>
<path d="M108.098 61.785C111.283 56.671 112.324 53.944 112.324 49.695C112.324 45.446 118.201 61.785 118.201 61.785C118.201 61.785 104.912 66.9 108.098 61.785Z" fill="url(#paint22_linear_67_111984)"/>
<path d="M101.706 37.874C101.706 37.874 113.831 47.592 115.749 47.592C117.667 47.592 112.95 35.633 112.95 35.633L101.706 37.874Z" fill="url(#paint23_linear_67_111984)"/>
<path d="M107.316 39.043H105.316C101.73 39.043 97.5827 35.414 97.2157 30.938L96.4227 21.326C96.3166 20.2919 96.4309 19.2469 96.7581 18.2601C97.0853 17.2733 97.6179 16.3671 98.321 15.6013C99.024 14.8354 99.8814 14.2273 100.837 13.817C101.792 13.4067 102.823 13.2036 103.863 13.221H108.953C109.992 13.2036 111.024 13.4067 111.979 13.817C112.934 14.2273 113.791 14.8354 114.494 15.6013C115.197 16.3671 115.73 17.2733 116.057 18.2601C116.385 19.2469 116.499 20.2919 116.393 21.326L115.605 30.943C115.238 35.409 110.914 39.034 107.316 39.043Z" fill="url(#paint24_linear_67_111984)"/>
<path opacity="0.15" d="M100.305 26.099C100.847 26.5704 101.533 26.8452 102.251 26.8793C102.969 26.9134 103.678 26.7048 104.263 26.287" stroke="#1E3159" stroke-miterlimit="10" stroke-linecap="round" stroke-linejoin="round"/>
<path opacity="0.3" d="M104.64 34.77C105.673 34.9363 106.719 35.0033 107.765 34.97C107.765 34.97 108.192 34.892 108.599 34.77" stroke="#1E3159" stroke-miterlimit="10" stroke-linecap="round" stroke-linejoin="round"/>
<path opacity="0.15" d="M108.599 26.099C109.141 26.5704 109.827 26.8452 110.545 26.8793C111.263 26.9134 111.972 26.7048 112.557 26.287" stroke="#1E3159" stroke-miterlimit="10" stroke-linecap="round" stroke-linejoin="round"/>
<path opacity="0.1" d="M104.452 31.942C104.796 31.781 105.771 32.319 105.771 32.319C105.771 32.319 106.554 31.958 106.525 31.377C106.496 30.796 106.848 26.593 106.902 26.099C107.242 27.7174 107.494 29.3532 107.656 30.999C107.639 31.215 108.41 32.13 108.41 32.13C107.827 32.5279 107.193 32.8447 106.525 33.072C106.109 33.071 104.108 32.103 104.452 31.942Z" fill="#233A67"/>
<path opacity="0.625" d="M98.8857 17.871C98.8857 17.871 98.4057 30.661 100.31 33.745C102.214 36.829 101.817 38.701 101.817 38.701L95.9277 33.745L98.8857 17.871Z" fill="#E38DEB"/>
<path opacity="0.2" d="M104.452 32.319C104.852 32.452 105.216 32.412 105.583 32.696C105.904 32.9495 106.304 33.0828 106.714 33.073C107.051 33.066 107.306 32.56 107.656 32.508C108.006 32.456 108.474 32.38 108.598 32.131" stroke="#1E3159" stroke-miterlimit="10"/>
<path d="M99.4957 15.614L99.6227 18.571C99.6395 18.9594 99.8056 19.3263 100.086 19.5952C100.367 19.8641 100.741 20.0141 101.13 20.014H111.404C111.602 20.014 111.798 19.975 111.981 19.8992C112.164 19.8234 112.33 19.7124 112.47 19.5723C112.61 19.4323 112.721 19.2661 112.797 19.0831C112.873 18.9001 112.912 18.704 112.912 18.506V15.426C114.183 20.0674 114.929 24.837 115.136 29.645C115.136 34.335 116.017 41.754 116.116 43.601C116.215 45.448 122.958 49.348 124.127 48.124C125.296 46.9 120.704 27.604 119.473 20.468C118.242 13.332 113.924 6.88802 105.277 7.19902C96.6297 7.51002 93.3787 16.63 92.8057 21.145C92.2327 25.66 89.1677 46.574 90.2107 48.125C91.2537 49.676 97.6107 45.263 97.6107 43.602V29.645C97.6117 24.956 99.4957 15.614 99.4957 15.614Z" fill="#735CE6"/>
<path opacity="0.484" d="M106.337 11.209C111.958 11.209 116.516 9.39444 116.516 7.15603C116.516 4.91762 111.958 3.10303 106.337 3.10303C100.715 3.10303 96.1577 4.91762 96.1577 7.15603C96.1577 9.39444 100.715 11.209 106.337 11.209Z" fill="#735CE6"/>
<path d="M98.7547 54.123C98.7547 58.381 102.266 61.111 107.769 61.111C113.272 61.111 116.712 58.685 116.993 54.038C118.761 58.696 119.257 73.244 118.481 97.682C115.55 99.2586 112.271 100.075 108.944 100.055C104.164 99.975 98.9807 98.035 97.6627 95.301C96.3447 92.567 98.7547 49.865 98.7547 54.123Z" fill="white"/>
<g opacity="0.328">
<path opacity="0.328" d="M114.362 67.043C112.919 72.359 109.42 78.753 105.934 81.161C102.448 83.569 109.034 85.244 108.047 86.561C105.955 89.0765 103.67 91.4247 101.213 93.584C99.1127 95.317 101.213 100.753 101.213 100.753C101.213 100.753 119.513 107.587 120.472 100.753C121.431 93.919 115.801 61.727 114.362 67.043Z" fill="url(#paint25_linear_67_111984)"/>
<path opacity="0.328" d="M114.362 67.043C112.919 72.359 109.42 78.753 105.934 81.161C102.448 83.569 109.034 85.244 108.047 86.561C105.955 89.0765 103.67 91.4247 101.213 93.584C99.1127 95.317 101.213 100.753 101.213 100.753C101.213 100.753 119.513 107.587 120.472 100.753C121.431 93.919 115.801 61.727 114.362 67.043Z" fill="url(#paint26_linear_67_111984)"/>
</g>
<path d="M67.6247 86.406C65.2337 88.447 64.3247 89.091 63.8247 90.935C63.3247 92.779 65.4997 98.078 68.3877 100.447C71.2757 102.816 71.7417 99.314 71.7137 99.314C71.6857 99.314 70.1497 94.114 70.6457 92.777C71.1417 91.44 72.7127 90.477 73.0347 89.577C73.3567 88.677 70.0157 84.367 67.6247 86.406Z" fill="url(#paint27_linear_67_111984)"/>
<path d="M154.197 86.406C156.588 88.447 157.497 89.091 157.997 90.935C158.497 92.779 156.317 98.078 153.427 100.447C150.537 102.816 150.073 99.314 150.101 99.314C150.129 99.314 151.665 94.114 151.169 92.777C150.673 91.44 149.102 90.477 148.779 89.577C148.456 88.677 151.804 84.367 154.197 86.406Z" fill="url(#paint28_linear_67_111984)"/>
<path d="M66.8197 86.831C69.7333 84.651 72.4802 82.2567 75.0377 79.668C75.6907 79.058 81.9157 54.288 84.1467 51.679C86.3777 49.07 100.154 41.825 101.62 40.533C101.513 41.833 97.8777 46.533 105.334 48.277C99.0487 54.235 101.162 59.409 101.62 63.753C102.078 68.097 101.162 74.97 101.162 81.499C101.162 88.028 101.162 90.935 101.62 100.46C102.078 109.985 105.114 112.044 103.367 113.784C101.62 115.524 90.5987 111.501 88.0827 110.484C85.5667 109.467 84.9577 103.035 86.5197 96.817C87.7367 92.2443 88.4622 87.5547 88.6837 82.828C88.6837 80.428 89.3357 72.533 88.0837 75.814C86.8317 79.095 85.2837 86.072 83.1237 89.061C80.9637 92.05 77.7027 90.618 73.3737 90.618C71.6397 85.348 68.2487 85.91 66.8217 86.832L66.5627 87.02C66.6446 86.9521 66.7305 86.889 66.8197 86.831Z" fill="#5598F6"/>
<path d="M80.3247 79.386C80.8449 79.386 81.2667 78.9643 81.2667 78.444C81.2667 77.9238 80.8449 77.502 80.3247 77.502C79.8044 77.502 79.3827 77.9238 79.3827 78.444C79.3827 78.9643 79.8044 79.386 80.3247 79.386Z" fill="white"/>
<path d="M84.2827 73.543C84.803 73.543 85.2247 73.1213 85.2247 72.601C85.2247 72.0808 84.803 71.659 84.2827 71.659C83.7624 71.659 83.3407 72.0808 83.3407 72.601C83.3407 73.1213 83.7624 73.543 84.2827 73.543Z" fill="white"/>
<path d="M86.7327 64.118C87.253 64.118 87.6747 63.6963 87.6747 63.176C87.6747 62.6558 87.253 62.234 86.7327 62.234C86.2125 62.234 85.7907 62.6558 85.7907 63.176C85.7907 63.6963 86.2125 64.118 86.7327 64.118Z" fill="white"/>
<path d="M90.8797 67.511C91.3999 67.511 91.8217 67.0893 91.8217 66.569C91.8217 66.0488 91.3999 65.627 90.8797 65.627C90.3594 65.627 89.9377 66.0488 89.9377 66.569C89.9377 67.0893 90.3594 67.511 90.8797 67.511Z" fill="white"/>
<path d="M97.2887 67.699C97.8089 67.699 98.2307 67.2773 98.2307 66.757C98.2307 66.2368 97.8089 65.815 97.2887 65.815C96.7684 65.815 96.3467 66.2368 96.3467 66.757C96.3467 67.2773 96.7684 67.699 97.2887 67.699Z" fill="white"/>
<path d="M96.7227 60.725C97.243 60.725 97.6647 60.3033 97.6647 59.783C97.6647 59.2628 97.243 58.841 96.7227 58.841C96.2024 58.841 95.7807 59.2628 95.7807 59.783C95.7807 60.3033 96.2024 60.725 96.7227 60.725Z" fill="white"/>
<path d="M90.3147 56.767C90.8349 56.767 91.2567 56.3453 91.2567 55.825C91.2567 55.3048 90.8349 54.883 90.3147 54.883C89.7944 54.883 89.3727 55.3048 89.3727 55.825C89.3727 56.3453 89.7944 56.767 90.3147 56.767Z" fill="white"/>
<path d="M98.2307 54.128C98.7509 54.128 99.1727 53.7063 99.1727 53.186C99.1727 52.6658 98.7509 52.244 98.2307 52.244C97.7104 52.244 97.2887 52.6658 97.2887 53.186C97.2887 53.7063 97.7104 54.128 98.2307 54.128Z" fill="white"/>
<path d="M93.5187 49.981C94.039 49.981 94.4607 49.5593 94.4607 49.039C94.4607 48.5188 94.039 48.097 93.5187 48.097C92.9985 48.097 92.5767 48.5188 92.5767 49.039C92.5767 49.5593 92.9985 49.981 93.5187 49.981Z" fill="white"/>
<path d="M85.7907 50.923C86.3109 50.923 86.7327 50.5013 86.7327 49.981C86.7327 49.4607 86.3109 49.039 85.7907 49.039C85.2704 49.039 84.8487 49.4607 84.8487 49.981C84.8487 50.5013 85.2704 50.923 85.7907 50.923Z" fill="white"/>
<path d="M84.0937 57.521C84.614 57.521 85.0357 57.0993 85.0357 56.579C85.0357 56.0588 84.614 55.637 84.0937 55.637C83.5735 55.637 83.1517 56.0588 83.1517 56.579C83.1517 57.0993 83.5735 57.521 84.0937 57.521Z" fill="white"/>
<path d="M80.3247 61.856C80.8449 61.856 81.2667 61.4343 81.2667 60.914C81.2667 60.3938 80.8449 59.972 80.3247 59.972C79.8044 59.972 79.3827 60.3938 79.3827 60.914C79.3827 61.4343 79.8044 61.856 80.3247 61.856Z" fill="white"/>
<path d="M80.3247 68.453C80.8449 68.453 81.2667 68.0313 81.2667 67.511C81.2667 66.9908 80.8449 66.569 80.3247 66.569C79.8044 66.569 79.3827 66.9908 79.3827 67.511C79.3827 68.0313 79.8044 68.453 80.3247 68.453Z" fill="white"/>
<path d="M76.5547 74.862C77.075 74.862 77.4967 74.4403 77.4967 73.92C77.4967 73.3998 77.075 72.978 76.5547 72.978C76.0345 72.978 75.6127 73.3998 75.6127 73.92C75.6127 74.4403 76.0345 74.862 76.5547 74.862Z" fill="white"/>
<path d="M75.4237 85.229C75.9439 85.229 76.3657 84.8073 76.3657 84.287C76.3657 83.7668 75.9439 83.345 75.4237 83.345C74.9034 83.345 74.4817 83.7668 74.4817 84.287C74.4817 84.8073 74.9034 85.229 75.4237 85.229Z" fill="white"/>
<path d="M69.3917 85.606C69.912 85.606 70.3337 85.1843 70.3337 84.664C70.3337 84.1438 69.912 83.722 69.3917 83.722C68.8715 83.722 68.4497 84.1438 68.4497 84.664C68.4497 85.1843 68.8715 85.606 69.3917 85.606Z" fill="white"/>
<path d="M75.8007 89.564C76.321 89.564 76.7427 89.1423 76.7427 88.622C76.7427 88.1018 76.321 87.68 75.8007 87.68C75.2805 87.68 74.8587 88.1018 74.8587 88.622C74.8587 89.1423 75.2805 89.564 75.8007 89.564Z" fill="white"/>
<path d="M82.3977 86.549C82.9179 86.549 83.3397 86.1273 83.3397 85.607C83.3397 85.0868 82.9179 84.665 82.3977 84.665C81.8774 84.665 81.4557 85.0868 81.4557 85.607C81.4557 86.1273 81.8774 86.549 82.3977 86.549Z" fill="white"/>
<path d="M97.2887 75.239C97.8089 75.239 98.2307 74.8173 98.2307 74.297C98.2307 73.7768 97.8089 73.355 97.2887 73.355C96.7684 73.355 96.3467 73.7768 96.3467 74.297C96.3467 74.8173 96.7684 75.239 97.2887 75.239Z" fill="white"/>
<path d="M90.6917 73.92C91.2119 73.92 91.6337 73.4983 91.6337 72.978C91.6337 72.4578 91.2119 72.036 90.6917 72.036C90.1714 72.036 89.7497 72.4578 89.7497 72.978C89.7497 73.4983 90.1714 73.92 90.6917 73.92Z" fill="white"/>
<path d="M93.1417 83.156C93.662 83.156 94.0837 82.7343 94.0837 82.214C94.0837 81.6938 93.662 81.272 93.1417 81.272C92.6215 81.272 92.1997 81.6938 92.1997 82.214C92.1997 82.7343 92.6215 83.156 93.1417 83.156Z" fill="white"/>
<path d="M99.1737 82.402C99.6939 82.402 100.116 81.9803 100.116 81.46C100.116 80.9398 99.6939 80.518 99.1737 80.518C98.6534 80.518 98.2317 80.9398 98.2317 81.46C98.2317 81.9803 98.6534 82.402 99.1737 82.402Z" fill="white"/>
<path d="M99.1737 92.392C99.6939 92.392 100.116 91.9703 100.116 91.45C100.116 90.9298 99.6939 90.508 99.1737 90.508C98.6534 90.508 98.2317 90.9298 98.2317 91.45C98.2317 91.9703 98.6534 92.392 99.1737 92.392Z" fill="white"/>
<path d="M91.0687 93.523C91.589 93.523 92.0107 93.1013 92.0107 92.581C92.0107 92.0608 91.589 91.639 91.0687 91.639C90.5485 91.639 90.1267 92.0608 90.1267 92.581C90.1267 93.1013 90.5485 93.523 91.0687 93.523Z" fill="white"/>
<path d="M94.6497 88.433C95.17 88.433 95.5917 88.0113 95.5917 87.491C95.5917 86.9708 95.17 86.549 94.6497 86.549C94.1295 86.549 93.7077 86.9708 93.7077 87.491C93.7077 88.0113 94.1295 88.433 94.6497 88.433Z" fill="white"/>
<path d="M97.6657 99.178C98.1859 99.178 98.6077 98.7563 98.6077 98.236C98.6077 97.7158 98.1859 97.294 97.6657 97.294C97.1454 97.294 96.7237 97.7158 96.7237 98.236C96.7237 98.7563 97.1454 99.178 97.6657 99.178Z" fill="white"/>
<path d="M92.3057 98.347C89.9077 88.922 91.1467 77.809 89.1477 75.258C87.1487 72.707 88.1187 84.052 88.1187 84.052L85.6897 95.625C85.6897 95.625 94.7027 107.772 92.3057 98.347Z" fill="url(#paint29_linear_67_111984)"/>
<path opacity="0.5" d="M88.0157 75.992C84.8837 78.912 83.5067 84.219 81.7857 85.713C80.0647 87.207 73.6097 90.561 73.6097 90.561L84.4737 92.661C84.4737 92.661 91.1467 73.073 88.0157 75.992Z" fill="url(#paint30_linear_67_111984)"/>
<path d="M112.633 40.272C114.099 41.564 127.999 49.058 130.233 51.666C132.467 54.274 139.233 80.875 139.886 81.485C140.539 82.095 150.959 85.077 153.728 85.974C152.658 85.974 149.242 87.264 151.337 91.874C153.564 92.544 134.543 94.862 132.388 91.874C130.233 88.886 127.544 79.081 126.289 75.8C125.034 72.519 126.289 79.081 126.289 81.486C126.289 83.891 126.289 91.874 127.852 96.808C129.415 101.742 128.806 109.462 126.289 110.475C123.772 111.488 117.735 113.835 117.735 110.475C117.735 110.475 115.361 102.423 115.335 98.063C115.314 94.691 114.229 81.397 113.887 77.263C112.998 66.514 112.214 66.263 112.458 63.952C112.916 59.608 115.324 54.222 109.04 48.264C116.498 46.518 112.884 41.555 112.633 40.272Z" fill="#5598F6"/>
<path d="M119.719 51.099C120.239 51.099 120.661 50.6773 120.661 50.157C120.661 49.6368 120.239 49.215 119.719 49.215C119.198 49.215 118.777 49.6368 118.777 50.157C118.777 50.6773 119.198 51.099 119.719 51.099Z" fill="white"/>
<path d="M127.636 50.534C128.156 50.534 128.578 50.1123 128.578 49.592C128.578 49.0718 128.156 48.65 127.636 48.65C127.115 48.65 126.694 49.0718 126.694 49.592C126.694 50.1123 127.115 50.534 127.636 50.534Z" fill="white"/>
<path d="M129.709 57.697C130.229 57.697 130.651 57.2753 130.651 56.755C130.651 56.2348 130.229 55.813 129.709 55.813C129.188 55.813 128.767 56.2348 128.767 56.755C128.767 57.2753 129.188 57.697 129.709 57.697Z" fill="white"/>
<path d="M123.489 57.697C124.009 57.697 124.431 57.2753 124.431 56.755C124.431 56.2348 124.009 55.813 123.489 55.813C122.969 55.813 122.547 56.2348 122.547 56.755C122.547 57.2753 122.969 57.697 123.489 57.697Z" fill="white"/>
<path d="M115.195 55.623C115.715 55.623 116.137 55.2013 116.137 54.681C116.137 54.1608 115.715 53.739 115.195 53.739C114.674 53.739 114.253 54.1608 114.253 54.681C114.253 55.2013 114.674 55.623 115.195 55.623Z" fill="white"/>
<path d="M117.457 62.221C117.977 62.221 118.399 61.7993 118.399 61.279C118.399 60.7588 117.977 60.337 117.457 60.337C116.937 60.337 116.515 60.7588 116.515 61.279C116.515 61.7993 116.937 62.221 117.457 62.221Z" fill="white"/>
<path d="M127.447 64.671C127.967 64.671 128.389 64.2493 128.389 63.729C128.389 63.2088 127.967 62.787 127.447 62.787C126.927 62.787 126.505 63.2088 126.505 63.729C126.505 64.2493 126.927 64.671 127.447 64.671Z" fill="white"/>
<path d="M134.233 61.655C134.753 61.655 135.175 61.2333 135.175 60.713C135.175 60.1928 134.753 59.771 134.233 59.771C133.713 59.771 133.291 60.1928 133.291 60.713C133.291 61.2333 133.713 61.655 134.233 61.655Z" fill="white"/>
<path d="M134.044 68.629C134.564 68.629 134.986 68.2073 134.986 67.687C134.986 67.1668 134.564 66.745 134.044 66.745C133.523 66.745 133.102 67.1668 133.102 67.687C133.102 68.2073 133.523 68.629 134.044 68.629Z" fill="white"/>
<path d="M123.489 68.441C124.009 68.441 124.431 68.0193 124.431 67.499C124.431 66.9788 124.009 66.557 123.489 66.557C122.969 66.557 122.547 66.9788 122.547 67.499C122.547 68.0193 122.969 68.441 123.489 68.441Z" fill="white"/>
<path d="M117.08 69.006C117.6 69.006 118.022 68.5843 118.022 68.064C118.022 67.5438 117.6 67.122 117.08 67.122C116.56 67.122 116.138 67.5438 116.138 68.064C116.138 68.5843 116.56 69.006 117.08 69.006Z" fill="white"/>
<path d="M118.022 76.734C118.542 76.734 118.964 76.3123 118.964 75.792C118.964 75.2718 118.542 74.85 118.022 74.85C117.502 74.85 117.08 75.2718 117.08 75.792C117.08 76.3123 117.502 76.734 118.022 76.734Z" fill="white"/>
<path d="M116.703 83.897C117.223 83.897 117.645 83.4753 117.645 82.955C117.645 82.4348 117.223 82.013 116.703 82.013C116.182 82.013 115.761 82.4348 115.761 82.955C115.761 83.4753 116.182 83.897 116.703 83.897Z" fill="white"/>
<path d="M122.358 83.897C122.878 83.897 123.3 83.4753 123.3 82.955C123.3 82.4348 122.878 82.013 122.358 82.013C121.838 82.013 121.416 82.4348 121.416 82.955C121.416 83.4753 121.838 83.897 122.358 83.897Z" fill="white"/>
<path d="M121.604 89.363C122.124 89.363 122.546 88.9413 122.546 88.421C122.546 87.9008 122.124 87.479 121.604 87.479C121.083 87.479 120.662 87.9008 120.662 88.421C120.662 88.9413 121.083 89.363 121.604 89.363Z" fill="white"/>
<path d="M117.645 93.699C118.165 93.699 118.587 93.2773 118.587 92.757C118.587 92.2368 118.165 91.815 117.645 91.815C117.125 91.815 116.703 92.2368 116.703 92.757C116.703 93.2773 117.125 93.699 117.645 93.699Z" fill="white"/>
<path d="M119.342 100.673C119.862 100.673 120.284 100.251 120.284 99.731C120.284 99.2108 119.862 98.789 119.342 98.789C118.821 98.789 118.4 99.2108 118.4 99.731C118.4 100.251 118.821 100.673 119.342 100.673Z" fill="white"/>
<path d="M125.939 98.977C126.459 98.977 126.881 98.5553 126.881 98.035C126.881 97.5148 126.459 97.093 125.939 97.093C125.419 97.093 124.997 97.5148 124.997 98.035C124.997 98.5553 125.419 98.977 125.939 98.977Z" fill="white"/>
<path d="M126.316 93.322C126.836 93.322 127.258 92.9003 127.258 92.38C127.258 91.8598 126.836 91.438 126.316 91.438C125.795 91.438 125.374 91.8598 125.374 92.38C125.374 92.9003 125.795 93.322 126.316 93.322Z" fill="white"/>
<path d="M124.054 74.661C124.574 74.661 124.996 74.2393 124.996 73.719C124.996 73.1988 124.574 72.777 124.054 72.777C123.534 72.777 123.112 73.1988 123.112 73.719C123.112 74.2393 123.534 74.661 124.054 74.661Z" fill="white"/>
<path d="M130.463 74.096C130.983 74.096 131.405 73.6743 131.405 73.154C131.405 72.6338 130.983 72.212 130.463 72.212C129.942 72.212 129.521 72.6338 129.521 73.154C129.521 73.6743 129.942 74.096 130.463 74.096Z" fill="white"/>
<path d="M137.249 73.53C137.769 73.53 138.191 73.1083 138.191 72.588C138.191 72.0678 137.769 71.646 137.249 71.646C136.729 71.646 136.307 72.0678 136.307 72.588C136.307 73.1083 136.729 73.53 137.249 73.53Z" fill="white"/>
<path d="M134.798 79.373C135.318 79.373 135.74 78.9513 135.74 78.431C135.74 77.9108 135.318 77.489 134.798 77.489C134.278 77.489 133.856 77.9108 133.856 78.431C133.856 78.9513 134.278 79.373 134.798 79.373Z" fill="white"/>
<path d="M133.29 86.725C133.81 86.725 134.232 86.3033 134.232 85.783C134.232 85.2628 133.81 84.841 133.29 84.841C132.769 84.841 132.348 85.2628 132.348 85.783C132.348 86.3033 132.769 86.725 133.29 86.725Z" fill="white"/>
<path d="M140.265 84.651C140.785 84.651 141.207 84.2293 141.207 83.709C141.207 83.1888 140.785 82.767 140.265 82.767C139.745 82.767 139.323 83.1888 139.323 83.709C139.323 84.2293 139.745 84.651 140.265 84.651Z" fill="white"/>
<path d="M140.453 89.175C140.973 89.175 141.395 88.7533 141.395 88.233C141.395 87.7128 140.973 87.291 140.453 87.291C139.932 87.291 139.511 87.7128 139.511 88.233C139.511 88.7533 139.932 89.175 140.453 89.175Z" fill="white"/>
<path d="M147.993 87.667C148.513 87.667 148.935 87.2453 148.935 86.725C148.935 86.2048 148.513 85.783 147.993 85.783C147.472 85.783 147.051 86.2048 147.051 86.725C147.051 87.2453 147.472 87.667 147.993 87.667Z" fill="white"/>
<path d="M119.289 104.439C119.289 99.001 124.645 83.507 124.91 81.595C125.175 79.683 125.853 75.107 125.853 75.107L130.166 94.001V99.383C130.166 99.383 119.289 109.877 119.289 104.439Z" fill="#D99F2B" fill-opacity="0.21"/>
<path d="M125.943 75.347C127.536 78.121 133.364 87.191 135.288 88.479C137.212 89.767 142.37 91.114 142.37 91.114L132.545 94.414L130.129 89.99C130.129 89.99 124.351 72.573 125.943 75.347Z" fill="#D99F2B" fill-opacity="0.28"/>
<path d="M94.8987 122.961C97.8477 119.861 128.232 96.327 134.399 93.326C140.566 90.325 149.699 87.356 152.734 92.461C155.769 97.566 152.527 102.128 145.626 108.338C138.725 114.548 105.31 129.219 100.396 131.258C95.4817 133.297 91.9507 126.061 94.8987 122.961Z" fill="#A1B8E3"/>
<path d="M94.8987 122.961C97.8477 119.861 128.232 96.327 134.399 93.326C140.566 90.325 149.699 87.356 152.734 92.461C155.769 97.566 152.527 102.128 145.626 108.338C138.725 114.548 105.31 129.219 100.396 131.258C95.4817 133.297 91.9507 126.061 94.8987 122.961Z" fill="url(#paint31_linear_67_111984)"/>
<path d="M94.8987 122.961C97.8477 119.861 128.232 96.327 134.399 93.326C140.566 90.325 149.699 87.356 152.734 92.461C155.769 97.566 152.527 102.128 145.626 108.338C138.725 114.548 105.31 129.219 100.396 131.258C95.4817 133.297 91.9507 126.061 94.8987 122.961Z" fill="url(#paint32_linear_67_111984)"/>
<path opacity="0.3" d="M110.988 127.375C104.009 126.73 93.8337 121.248 93.8337 121.248L100.345 116.841L112.317 125.247C112.317 125.247 117.966 128.021 110.988 127.375Z" fill="url(#paint33_linear_67_111984)"/>
<path d="M108.769 110.012C111.14 110.669 124.52 118.484 127.851 119.614C131.182 120.744 125.68 124.354 123.351 125.331C121.022 126.308 107.128 114.68 107.83 112.883C108.532 111.086 106.398 109.354 108.769 110.012Z" fill="#738FC4"/>
<path d="M127.161 122.961C124.212 119.861 93.8277 96.327 87.6607 93.326C81.4937 90.325 72.3607 87.356 69.3257 92.461C66.2907 97.566 69.5317 102.128 76.4337 108.338C83.3357 114.548 116.744 129.219 121.66 131.257C126.576 133.295 130.11 126.061 127.161 122.961Z" fill="#A1B8E3"/>
<path d="M127.161 122.961C124.212 119.861 93.8277 96.327 87.6607 93.326C81.4937 90.325 72.3607 87.356 69.3257 92.461C66.2907 97.566 69.5317 102.128 76.4337 108.338C83.3357 114.548 116.744 129.219 121.66 131.257C126.576 133.295 130.11 126.061 127.161 122.961Z" fill="url(#paint34_linear_67_111984)"/>
<path d="M127.161 122.961C124.212 119.861 93.8277 96.327 87.6607 93.326C81.4937 90.325 72.3607 87.356 69.3257 92.461C66.2907 97.566 69.5317 102.128 76.4337 108.338C83.3357 114.548 116.744 129.219 121.66 131.257C126.576 133.295 130.11 126.061 127.161 122.961Z" fill="url(#paint35_linear_67_111984)"/>
<path d="M127.161 122.961C124.212 119.861 93.8277 96.327 87.6607 93.326C81.4937 90.325 72.3607 87.356 69.3257 92.461C66.2907 97.566 69.5317 102.128 76.4337 108.338C83.3357 114.548 116.744 129.219 121.66 131.257C126.576 133.295 130.11 126.061 127.161 122.961Z" fill="url(#paint36_linear_67_111984)"/>
<path d="M127.161 122.961C124.212 119.861 93.8277 96.327 87.6607 93.326C81.4937 90.325 72.3607 87.356 69.3257 92.461C66.2907 97.566 69.5317 102.128 76.4337 108.338C83.3357 114.548 116.744 129.219 121.66 131.257C126.576 133.295 130.11 126.061 127.161 122.961Z" fill="url(#paint37_linear_67_111984)"/>
<path d="M101.647 40.371C98.8827 42.544 98.4387 46.695 98.7187 48.634C99.2515 51.0517 100.014 53.4131 100.995 55.686C101.63 52.7639 103.188 50.1233 105.439 48.154C102.993 47.23 100.277 45.486 101.647 40.371Z" fill="#0D6CF2"/>
<path d="M112.614 40.181C115.378 42.354 115.814 46.505 115.542 48.444C115.009 50.8617 114.247 53.2231 113.266 55.496C112.632 52.5745 111.075 49.934 108.827 47.964C111.268 47.04 113.984 45.296 112.614 40.181Z" fill="#0D6CF2"/>
<path d="M183.279 142.144L164.717 133.965C164.537 133.886 164.387 133.754 164.286 133.585C164.186 133.417 164.14 133.222 164.156 133.026C164.172 132.831 164.248 132.645 164.375 132.495C164.501 132.346 164.671 132.239 164.861 132.19L200.397 122.983L219.547 131.704L183.279 142.144Z" fill="url(#paint38_linear_67_111984)"/>
<path d="M226.655 103.73L193.001 110.208C192.468 110.31 191.977 110.564 191.584 110.938C191.192 111.312 190.915 111.791 190.788 112.318L183.524 142.232L218.065 133.628C218.476 133.526 218.854 133.318 219.161 133.026C219.468 132.734 219.695 132.368 219.818 131.962L227.952 105.169C228.008 104.982 228.016 104.784 227.973 104.593C227.931 104.403 227.84 104.227 227.709 104.082C227.578 103.937 227.412 103.828 227.227 103.767C227.041 103.705 226.843 103.692 226.652 103.73H226.655Z" fill="url(#paint39_linear_67_111984)"/>
<path d="M208.173 125.288C206.565 126.347 204.754 126.58 203.81 125.145C202.866 123.71 203.988 121.803 205.597 120.745C207.206 119.687 208.829 119.477 209.773 120.912C210.717 122.347 209.782 124.228 208.173 125.288Z" fill="#D6E3FA"/>
<path opacity="0.7" d="M25.0557 140.112C31.3017 140.112 36.3657 141.212 36.3657 142.562C36.3657 143.912 31.3017 145.012 25.0557 145.012C18.8097 145.012 13.7457 143.912 13.7457 142.562C13.7457 141.212 18.8087 140.112 25.0557 140.112Z" fill="url(#paint40_linear_67_111984)"/>
<path d="M40.1257 128.307C40.9917 129.804 41.4496 131.502 41.4537 133.232C41.4537 139.532 35.3777 144.632 27.8827 144.632C20.3877 144.632 14.3107 139.531 14.3107 133.233C14.3162 131.402 14.8284 129.608 15.7907 128.05C21.8027 129.001 33.7697 128.939 40.1257 128.307Z" fill="url(#paint41_linear_67_111984)"/>
<path d="M27.9767 125.787C34.7957 125.787 40.3227 127.095 40.3227 128.709C40.3227 130.323 34.7957 131.63 27.9767 131.63C21.1577 131.63 15.6307 130.322 15.6307 128.709C15.6307 127.096 21.1587 125.787 27.9767 125.787Z" fill="url(#paint42_linear_67_111984)"/>
<path d="M26.9397 126.541C25.9138 119.72 23.1194 113.286 18.8347 107.88C15.5497 103.605 15.5387 93.195 15.0647 92.047C17.6417 92.933 22.2727 95.218 26.9397 101.66C31.8327 108.413 28.7287 122.185 26.9397 126.541Z" fill="url(#paint43_linear_67_111984)"/>
<path opacity="0.5" d="M26.7517 126.541C27.2657 115.199 25.8537 108.041 21.4137 101.283" stroke="#48A614" stroke-width="3" stroke-miterlimit="10"/>
<path d="M26.9607 131.331C23.8841 126.473 19.5889 122.505 14.5027 119.823C10.5597 117.667 7.05171 109.731 6.30371 109.018C8.56871 108.828 12.8697 109.018 18.5967 112.36C24.6007 115.863 26.8617 127.408 26.9607 131.331Z" fill="url(#paint44_linear_67_111984)"/>
<path opacity="0.5" d="M26.8167 131.395C23.3967 122.572 19.9127 117.588 14.2537 113.926" stroke="#48A614" stroke-width="3" stroke-miterlimit="10"/>
<path d="M28.4567 131.791C30.8905 126.555 34.6543 122.049 39.3727 118.722C43.0207 116.066 45.4847 107.712 46.1367 106.903C43.8557 107.003 39.5957 107.747 34.3257 111.816C28.8007 116.08 28.0467 127.868 28.4567 131.791Z" fill="url(#paint45_linear_67_111984)"/>
<path opacity="0.5" d="M27.9787 131.779C30.2407 122.551 33.0657 117.14 38.2257 112.764" stroke="#48A614" stroke-width="3" stroke-miterlimit="10"/>
<defs>
<linearGradient id="paint0_linear_67_111984" x1="41.9204" y1="35.6348" x2="20.484" y2="63.6617" gradientUnits="userSpaceOnUse">
<stop stop-color="#CFDDF3"/>
<stop offset="1" stop-color="#A1B8E3"/>
</linearGradient>
<linearGradient id="paint1_linear_67_111984" x1="160.51" y1="66.6748" x2="152.044" y2="74.8846" gradientUnits="userSpaceOnUse">
<stop stop-color="#CFDDF3"/>
<stop offset="1" stop-color="#A1B8E3"/>
</linearGradient>
<linearGradient id="paint2_linear_67_111984" x1="183.818" y1="94.4904" x2="180.53" y2="83.1502" gradientUnits="userSpaceOnUse">
<stop stop-color="#CFDDF3"/>
<stop offset="1" stop-color="#A1B8E3"/>
</linearGradient>
<linearGradient id="paint3_linear_67_111984" x1="179.473" y1="105.256" x2="176.78" y2="93.7588" gradientUnits="userSpaceOnUse">
<stop stop-color="#CFDDF3"/>
<stop offset="1" stop-color="#A1B8E3"/>
</linearGradient>
<linearGradient id="paint4_linear_67_111984" x1="176.279" y1="115.108" x2="173.585" y2="103.611" gradientUnits="userSpaceOnUse">
<stop stop-color="#CFDDF3"/>
<stop offset="1" stop-color="#A1B8E3"/>
</linearGradient>
<linearGradient id="paint5_linear_67_111984" x1="184.02" y1="69.9292" x2="172.857" y2="66.1108" gradientUnits="userSpaceOnUse">
<stop stop-color="#CFDDF3"/>
<stop offset="1" stop-color="#A1B8E3"/>
</linearGradient>
<linearGradient id="paint6_linear_67_111984" x1="152.581" y1="77.5166" x2="145.838" y2="87.1936" gradientUnits="userSpaceOnUse">
<stop stop-color="#CFDDF3"/>
<stop offset="1" stop-color="#A1B8E3"/>
</linearGradient>
<linearGradient id="paint7_linear_67_111984" x1="147.232" y1="88.5423" x2="141.537" y2="98.8738" gradientUnits="userSpaceOnUse">
<stop stop-color="#CFDDF3"/>
<stop offset="1" stop-color="#A1B8E3"/>
</linearGradient>
<radialGradient id="paint8_radial_67_111984" cx="0" cy="0" r="1" gradientUnits="userSpaceOnUse" gradientTransform="translate(148.513 126.875) scale(12.4128 7.01803)">
<stop stop-color="#3864B1"/>
<stop offset="1" stop-color="#223762"/>
</radialGradient>
<linearGradient id="paint9_linear_67_111984" x1="138.469" y1="131.335" x2="136.853" y2="126.109" gradientUnits="userSpaceOnUse">
<stop stop-color="#223762" stop-opacity="0"/>
<stop offset="1" stop-opacity="0.502"/>
</linearGradient>
<linearGradient id="paint10_linear_67_111984" x1="125.636" y1="131.138" x2="130.217" y2="127.951" gradientUnits="userSpaceOnUse">
<stop stop-color="#E38DEB"/>
<stop offset="1" stop-color="#F6A1FE"/>
</linearGradient>
<linearGradient id="paint11_linear_67_111984" x1="124.548" y1="134.499" x2="124.548" y2="124.829" gradientUnits="userSpaceOnUse">
<stop stop-color="#70B8F9" stop-opacity="0"/>
<stop offset="1" stop-color="#3D82F0"/>
</linearGradient>
<radialGradient id="paint12_radial_67_111984" cx="0" cy="0" r="1" gradientUnits="userSpaceOnUse" gradientTransform="translate(75.5299 125.086) scale(12.4854 6.75343)">
<stop stop-color="#351C56"/>
<stop offset="1" stop-color="#223762"/>
</radialGradient>
<radialGradient id="paint13_radial_67_111984" cx="0" cy="0" r="1" gradientUnits="userSpaceOnUse" gradientTransform="translate(75.5299 125.086) scale(12.4854 6.75343)">
<stop stop-color="#351C56"/>
<stop offset="1" stop-color="#223762"/>
</radialGradient>
<radialGradient id="paint14_radial_67_111984" cx="0" cy="0" r="1" gradientUnits="userSpaceOnUse" gradientTransform="translate(75.5299 125.086) scale(12.4854 6.75343)">
<stop stop-color="#351C56"/>
<stop offset="1" stop-color="#223762"/>
</radialGradient>
<linearGradient id="paint15_linear_67_111984" x1="97.2961" y1="131.363" x2="94.1287" y2="126.325" gradientUnits="userSpaceOnUse">
<stop stop-color="#F158FF"/>
<stop offset="1" stop-color="#F6A1FE"/>
</linearGradient>
<linearGradient id="paint16_linear_67_111984" x1="98.1377" y1="134.076" x2="98.1377" y2="126.055" gradientUnits="userSpaceOnUse">
<stop stop-color="#F6A1FE" stop-opacity="0.082"/>
<stop offset="1" stop-color="#E38DEB"/>
</linearGradient>
<linearGradient id="paint17_linear_67_111984" x1="110.778" y1="132.001" x2="110.778" y2="101.301" gradientUnits="userSpaceOnUse">
<stop stop-color="#41679C"/>
<stop offset="1" stop-color="#89A3D0"/>
</linearGradient>
<linearGradient id="paint18_linear_67_111984" x1="109.139" y1="96.4944" x2="109.297" y2="104.351" gradientUnits="userSpaceOnUse">
<stop stop-color="#5E7FB1"/>
<stop offset="1" stop-color="#A1B8E3" stop-opacity="0.188"/>
</linearGradient>
<linearGradient id="paint19_linear_67_111984" x1="117.805" y1="99.753" x2="118.651" y2="113.854" gradientUnits="userSpaceOnUse">
<stop stop-color="#5E7FB1"/>
<stop offset="1" stop-color="#A1B8E3" stop-opacity="0.188"/>
</linearGradient>
<linearGradient id="paint20_linear_67_111984" x1="106.474" y1="109.043" x2="102.989" y2="102.268" gradientUnits="userSpaceOnUse">
<stop stop-color="#5E7FB1"/>
<stop offset="1" stop-color="#A1B8E3" stop-opacity="0.188"/>
</linearGradient>
<linearGradient id="paint21_linear_67_111984" x1="107.258" y1="34.5766" x2="107.258" y2="47.1711" gradientUnits="userSpaceOnUse">
<stop stop-color="#E38DEB"/>
<stop offset="1" stop-color="#F590FF"/>
</linearGradient>
<linearGradient id="paint22_linear_67_111984" x1="115.34" y1="56.5241" x2="108.604" y2="57.5614" gradientUnits="userSpaceOnUse">
<stop stop-color="#E38DEB"/>
<stop offset="1" stop-color="#E38DEB" stop-opacity="0.102"/>
</linearGradient>
<linearGradient id="paint23_linear_67_111984" x1="108.957" y1="47.592" x2="108.957" y2="35.633" gradientUnits="userSpaceOnUse">
<stop stop-color="#E38DEB" stop-opacity="0.161"/>
<stop offset="1" stop-color="#E38DEB"/>
</linearGradient>
<linearGradient id="paint24_linear_67_111984" x1="121.563" y1="32.4323" x2="108.172" y2="32.4323" gradientUnits="userSpaceOnUse">
<stop stop-color="#E38DEB"/>
<stop offset="1" stop-color="#F6A1FE"/>
</linearGradient>
<linearGradient id="paint25_linear_67_111984" x1="98.2898" y1="82.5829" x2="119.092" y2="88.8536" gradientUnits="userSpaceOnUse">
<stop stop-color="#E9F2FE"/>
<stop offset="1" stop-color="#BCD3F8"/>
</linearGradient>
<linearGradient id="paint26_linear_67_111984" x1="110.43" y1="86.4286" x2="120.069" y2="92.5431" gradientUnits="userSpaceOnUse">
<stop stop-color="white" stop-opacity="0"/>
<stop offset="1" stop-color="#003BA0"/>
</linearGradient>
<linearGradient id="paint27_linear_67_111984" x1="68.4046" y1="93.5669" x2="63.5339" y2="92.7551" gradientUnits="userSpaceOnUse">
<stop stop-color="#E38DEB"/>
<stop offset="1" stop-color="#F6A1FE"/>
</linearGradient>
<linearGradient id="paint28_linear_67_111984" x1="153.413" y1="92.7351" x2="156.352" y2="91.9657" gradientUnits="userSpaceOnUse">
<stop stop-color="#E38DEB"/>
<stop offset="1" stop-color="#F6A1FE"/>
</linearGradient>
<linearGradient id="paint29_linear_67_111984" x1="85.6897" y1="97.6572" x2="96.0976" y2="95.6793" gradientUnits="userSpaceOnUse">
<stop stop-color="#D99F2B"/>
<stop offset="1" stop-color="#A9C1E8" stop-opacity="0.094"/>
</linearGradient>
<linearGradient id="paint30_linear_67_111984" x1="88.8516" y1="77.5616" x2="72.51" y2="88.3083" gradientUnits="userSpaceOnUse">
<stop stop-color="#A9BFE4"/>
<stop offset="1" stop-color="#A9C1E8" stop-opacity="0.094"/>
</linearGradient>
<linearGradient id="paint31_linear_67_111984" x1="114.961" y1="114.973" x2="117.686" y2="127.65" gradientUnits="userSpaceOnUse">
<stop stop-color="#B2C7EE" stop-opacity="0"/>
<stop offset="1" stop-color="#1F54A6"/>
</linearGradient>
<linearGradient id="paint32_linear_67_111984" x1="153.874" y1="102.481" x2="135.002" y2="105.371" gradientUnits="userSpaceOnUse">
<stop stop-color="white" stop-opacity="0.502"/>
<stop offset="1" stop-color="#B2C7EE" stop-opacity="0"/>
</linearGradient>
<linearGradient id="paint33_linear_67_111984" x1="96.7855" y1="124.549" x2="103.141" y2="118.616" gradientUnits="userSpaceOnUse">
<stop stop-color="#A1B8E3" stop-opacity="0.235"/>
<stop offset="1" stop-color="#002B6F"/>
</linearGradient>
<linearGradient id="paint34_linear_67_111984" x1="90.0437" y1="108.223" x2="82.9482" y2="122.586" gradientUnits="userSpaceOnUse">
<stop stop-color="#B2C7EE" stop-opacity="0"/>
<stop offset="1" stop-color="#1F54A6"/>
</linearGradient>
<linearGradient id="paint35_linear_67_111984" x1="91.2448" y1="90.827" x2="91.2448" y2="107.468" gradientUnits="userSpaceOnUse">
<stop stop-color="white" stop-opacity="0.502"/>
<stop offset="1" stop-color="#B2C7EE" stop-opacity="0"/>
</linearGradient>
<linearGradient id="paint36_linear_67_111984" x1="116.767" y1="116.523" x2="117.294" y2="133.014" gradientUnits="userSpaceOnUse">
<stop stop-color="#A1B8E3" stop-opacity="0"/>
<stop offset="1" stop-color="#1C2F84" stop-opacity="0.502"/>
</linearGradient>
<linearGradient id="paint37_linear_67_111984" x1="106.138" y1="104.45" x2="102.681" y2="117.012" gradientUnits="userSpaceOnUse">
<stop stop-color="white" stop-opacity="0.502"/>
<stop offset="1" stop-color="#A1B8E3" stop-opacity="0"/>
</linearGradient>
<linearGradient id="paint38_linear_67_111984" x1="164.153" y1="132.564" x2="167.666" y2="145.206" gradientUnits="userSpaceOnUse">
<stop stop-color="#47689B"/>
<stop offset="1" stop-color="#223762"/>
</linearGradient>
<linearGradient id="paint39_linear_67_111984" x1="228.001" y1="103.709" x2="194.405" y2="147.047" gradientUnits="userSpaceOnUse">
<stop stop-color="#CFDDF3"/>
<stop offset="0.474" stop-color="#B3C7E9"/>
<stop offset="1" stop-color="#728FC5"/>
</linearGradient>
<linearGradient id="paint40_linear_67_111984" x1="36.3657" y1="142.562" x2="13.7457" y2="142.562" gradientUnits="userSpaceOnUse">
<stop stop-color="#D9E5F6" stop-opacity="0.714"/>
<stop offset="1" stop-color="#B2C6EA"/>
</linearGradient>
<linearGradient id="paint41_linear_67_111984" x1="41.4537" y1="144.632" x2="24.7915" y2="133.197" gradientUnits="userSpaceOnUse">
<stop stop-color="#ACC5E9"/>
<stop offset="0.627" stop-color="#D3E3FB"/>
<stop offset="1" stop-color="#EAF2FF"/>
</linearGradient>
<linearGradient id="paint42_linear_67_111984" x1="34.7917" y1="125.787" x2="34.2445" y2="134.858" gradientUnits="userSpaceOnUse">
<stop stop-color="#86A8D9"/>
<stop offset="1" stop-color="#BCD0F2"/>
</linearGradient>
<linearGradient id="paint43_linear_67_111984" x1="20.0251" y1="93.7717" x2="39.8776" y2="111.633" gradientUnits="userSpaceOnUse">
<stop stop-color="#7AD945"/>
<stop offset="0.517" stop-color="#79D744"/>
<stop offset="1" stop-color="#48A614"/>
</linearGradient>
<linearGradient id="paint44_linear_67_111984" x1="22.5401" y1="106.887" x2="25.3901" y2="128.773" gradientUnits="userSpaceOnUse">
<stop stop-color="#B1FFBE"/>
<stop offset="0.444" stop-color="#7AD945"/>
<stop offset="1" stop-color="#48A614"/>
</linearGradient>
<linearGradient id="paint45_linear_67_111984" x1="34.4414" y1="108.147" x2="47.6412" y2="128.317" gradientUnits="userSpaceOnUse">
<stop stop-color="#7AD945"/>
<stop offset="0.444" stop-color="#7AD945"/>
<stop offset="1" stop-color="#48A614"/>
</linearGradient>
</defs>
</svg>
